<svg width="182" height="151" viewBox="0 0 182 151" fill="none" xmlns="http://www.w3.org/2000/svg">
<path opacity="0.0945293" d="M162.12 143.318C153.053 136.429 137.543 119.331 157.966 92.4956C183.221 59.306 152.977 45.6886 123.982 47.1094C100.658 48.2708 74.4051 18.9287 48.2198 24.1689C13.4618 31.1093 36.0312 61.0421 12.4641 77.1819C-7.63483 90.9351 0.99381 132.841 27.1391 143.318H162.12Z" fill="#8CCFFF"/>
<path opacity="0.0945293" d="M178.488 82.4581C178.348 77.5331 173.762 75.6254 170.701 79.1894C168.53 81.6755 167.219 84.7951 166.961 88.0855C166.259 96.8658 173.938 94.3155 176.803 89.618C178.029 87.6145 178.559 84.9445 178.488 82.4581Z" fill="#8CCFFF"/>
<path d="M94.0131 22.4328C89.1759 21.5188 86.3303 25.5897 89.156 29.3373C91.1196 31.9909 93.8866 33.9406 97.0463 34.8968C105.471 37.4551 104.629 29.4131 100.638 25.6057C98.954 23.9853 96.4596 22.8958 94.0131 22.4328Z" fill="#DCEDF9"/>
<path opacity="0.0945293" d="M14.0565 67.5236C15.9921 62.9978 12.6317 59.342 8.36127 61.2936C5.34739 62.6409 2.84787 64.9235 1.23327 67.803C-3.08105 75.4778 4.95292 76.3877 9.52666 73.3226C11.4783 72.0175 13.0787 69.8224 14.0565 67.5236Z" fill="#8CCFFF"/>
<ellipse cx="91.1475" cy="144.659" rx="82.9179" ry="5.45975" fill="#DCEDF9"/>
<path d="M171.83 99.879C166.754 104.944 172.413 105.383 168.689 109.214C165.297 112.71 160.284 109.31 160.62 117.839C160.691 119.707 159.334 121.091 157.427 121.802C154.566 122.891 151.329 122.067 149.337 119.742C149.181 119.571 149.034 119.391 148.898 119.204C147.35 117.115 147.011 114.367 148.004 111.964C148.866 109.833 150.399 107.733 153.096 106.899C159.446 104.936 155.922 96.5225 161.286 96.1593C167.76 95.7123 167.991 93.3417 172.581 90.1409C177.45 86.7525 178.711 92.9984 171.83 99.879Z" fill="#3840F7"/>
<path d="M169.556 97.1052C169.412 97.2489 157.642 109.386 149.337 119.742C149.181 119.571 149.034 119.391 148.898 119.204C157.227 108.827 168.925 96.778 169.069 96.6303C169.132 96.5659 169.218 96.5297 169.308 96.5297C169.398 96.5297 169.484 96.5659 169.548 96.6303C169.679 96.76 169.683 96.9711 169.556 97.1052V97.1052Z" fill="#0077EB"/>
<path d="M173.131 116.821C165.181 121.502 172.09 123.861 166.219 127.433C160.867 130.686 155.727 124.843 153.392 135.571C152.885 137.918 150.746 139.203 148.148 139.47C144.235 139.904 140.469 137.839 138.733 134.306C138.601 134.038 138.477 133.767 138.366 133.488C137.111 130.39 137.573 126.862 139.583 124.192C141.343 121.798 143.921 119.695 147.565 119.527C156.098 119.128 154.417 107.53 161.214 108.795C169.412 110.328 170.465 107.446 177.21 104.944C184.354 102.29 183.911 110.475 173.131 116.821Z" fill="#3840F7"/>
<path d="M171.192 112.634C170.968 112.77 152.41 124.089 138.733 134.306C138.601 134.038 138.477 133.767 138.366 133.488C152.071 123.271 170.513 112.024 170.741 111.888C170.874 111.807 171.04 111.804 171.177 111.879C171.313 111.955 171.399 112.097 171.402 112.253C171.405 112.408 171.325 112.554 171.192 112.634Z" fill="#0077EB"/>
<path d="M18.0156 41.8851C20.7415 48.5222 15.3496 46.7382 17.3132 51.7111C19.0972 56.2529 25.0319 55.0556 21.4359 62.7982C20.6377 64.4904 21.3681 66.2944 22.8567 67.6832C25.0799 69.7973 28.3924 70.2846 31.1302 68.9005C31.3417 68.8007 31.5293 68.689 31.7448 68.5693C33.9699 67.2339 35.3329 64.8305 35.3367 62.2355C35.3647 59.9366 34.762 57.4103 32.5909 55.5984C27.4864 51.3399 33.9798 44.9423 29.1706 42.5317C23.3716 39.6302 24.07 37.3433 21.0688 32.6259C17.8879 27.6211 14.3159 32.9013 18.0156 41.8851Z" fill="#3840F7"/>
<path d="M21.1845 40.2209C21.2563 40.4085 27.4424 56.1451 31.1142 68.9005C31.3257 68.8007 31.5133 68.689 31.7288 68.5693C28.0371 55.7979 21.8909 40.161 21.8151 39.9694C21.7702 39.8568 21.6686 39.7767 21.5486 39.7593C21.4285 39.7418 21.3084 39.7897 21.2333 39.885C21.1582 39.9802 21.1396 40.1082 21.1845 40.2209V40.2209Z" fill="#0077EB"/>
<path d="M10.2411 59.2422C15.9961 66.458 8.70051 66.1946 12.9071 71.6144C16.7624 76.5793 23.635 72.9554 21.9787 83.7911C21.6155 86.1857 23.1521 88.1334 25.4868 89.3147C28.987 91.1144 33.2396 90.5288 36.123 87.85C36.3425 87.6504 36.554 87.4509 36.7576 87.2194C39.0381 84.7765 39.8685 81.3156 38.9446 78.1039C38.1464 75.2543 36.4981 72.3528 33.1656 70.896C25.3352 67.4757 31.0504 57.2387 24.2456 55.9975C16.044 54.4968 16.0919 51.4317 10.6761 46.6824C4.95292 41.6616 2.44256 49.4681 10.2411 59.2422Z" fill="#3840F7"/>
<path d="M13.5696 56.0294C13.7292 56.2369 27.0234 73.4383 36.1429 87.8659C36.3624 87.6664 36.574 87.4668 36.7775 87.2354C27.63 72.7958 14.4277 55.7061 14.26 55.4946C14.1645 55.3712 14.0104 55.3082 13.8559 55.3293C13.7013 55.3504 13.5697 55.4523 13.5106 55.5967C13.4516 55.7411 13.4741 55.906 13.5696 56.0294Z" fill="#0077EB"/>
<path d="M49.0619 52.9643C51.3807 51.3679 57.1877 55.2911 60.2369 60.0484L57.5429 52.5013C55.9612 51.1845 54.1474 50.1747 52.1949 49.524C48.0442 48.0513 43.8895 45.7485 46.2083 44.16C48.3835 42.6674 53.6357 46.0278 56.7806 50.3821L53.3164 40.6878C52.3969 39.9997 51.3746 39.4609 50.2872 39.0914C47.6731 38.1615 45.0549 36.6968 46.5196 35.711C47.7888 34.8409 50.7222 36.593 52.7217 39.0315L51.6042 35.8986C50.9594 34.6633 50.1543 33.5186 49.2096 32.4942C46.5476 29.7404 44.5321 26.6394 46.5875 26.1884C48.6429 25.7374 52.0073 31.1412 52.5381 36.0183L53.1128 37.6147C52.6658 34.0667 53.943 29.7723 55.719 29.6326C57.495 29.4929 56.3815 32.2667 54.9447 34.6374C54.1691 35.845 53.6652 37.2068 53.468 38.6284L56.1939 46.2753C55.5035 40.6559 57.5229 33.8791 60.3366 33.6357C63.1503 33.3922 61.3823 37.8103 59.1034 41.5778C57.3833 44.4195 56.8964 46.6824 56.7646 47.8677L60.0333 57.0232C59.4666 51.4636 61.4382 44.7068 64.2119 44.6789C66.3471 44.6789 65.6926 47.6801 63.1423 51.9386C61.8569 54.0339 61.0135 56.37 60.6639 58.8032L62.2004 63.1175C61.9683 63.2889 61.6905 63.3875 61.4022 63.4009L60.7876 61.6847C59.9256 60.8466 58.1216 59.4258 55.0246 58.3282C50.8978 56.8555 46.7391 54.5527 49.0619 52.9643Z" fill="#3840F7"/>
<path d="M28.6597 116.917C26.2651 118.413 27.5662 125.298 30.7231 129.975L24.8722 124.5C24.2895 122.526 24.0837 120.46 24.2656 118.409C24.5649 114.019 24.1059 109.286 21.7193 110.787C19.4883 112.191 20.4861 118.346 23.2279 122.963L15.7088 115.939C15.4441 114.823 15.3566 113.673 15.4494 112.531C15.6369 109.765 15.3496 106.784 13.8529 107.741C12.5519 108.564 12.9949 111.952 14.4396 114.758L12.0011 112.479C11.1208 111.398 10.3867 110.207 9.818 108.935C8.3493 105.399 6.30588 102.318 5.07664 104.022C3.8474 105.726 7.47127 110.966 11.7297 113.389L12.9829 114.562C9.9058 112.742 5.45579 112.203 4.60171 113.764C3.74762 115.324 6.75687 115.412 9.50271 115.037C10.9155 114.807 12.3612 114.885 13.7412 115.264L19.6639 120.8C14.7829 117.93 7.75862 117.088 6.41763 119.579C5.07664 122.069 9.83397 122.197 14.1962 121.602C17.4888 121.151 19.7597 121.602 20.8971 121.953L28.0012 128.595C23.1321 125.853 16.1558 125.003 15.0343 127.529C14.1722 129.485 17.1974 130.083 22.1224 129.433C24.5542 129.093 27.0296 129.252 29.3981 129.9L32.7426 133.025C32.9913 132.882 33.1915 132.668 33.3173 132.41L31.9843 131.165C31.5612 130.039 30.9745 127.82 31.186 124.544C31.5053 120.15 31.0424 115.42 28.6597 116.917Z" fill="#3840F7"/>
<rect x="21.7512" y="55.2232" width="126.951" height="87.6952" rx="43.8476" fill="url(#paint0_linear_2_2)"/>
<path d="M148.702 55.2272V60.8466L85.2288 117.104L21.7512 60.8466V55.2272L85.2248 111.677L148.702 55.2272V55.2272Z" fill="#3840F7"/>
<path d="M73.0002 100.605L25.431 142.914H21.7512V140.679L70.2624 97.5323L73.0002 100.605V100.605Z" fill="#3840F7"/>
<path d="M148.706 140.979V142.914H144.695L97.1261 100.605L99.8599 97.5323L148.706 140.979V140.979Z" fill="#3840F7"/>
<path d="M21.7472 55.2192L85.2248 111.677L148.702 55.2192H21.7472V55.2192Z" fill="url(#paint1_linear_2_2)"/>
<path d="M113.681 47.3249L115.301 50.7892L111.877 50.841L110.556 47.6881L113.681 47.3249V47.3249Z" fill="#F9AF8B"/>
<path d="M114.22 50.5736C114.22 50.5736 114.926 49.6278 115.485 49.6677C116.044 49.7076 120.35 53.1359 121.827 53.4193C123.303 53.7026 123.168 55.2033 122.549 55.2033H110.951C110.951 55.2033 110.656 51.6911 111.031 50.6455C111.406 49.5998 113.066 50.8211 114.22 50.5736Z" fill="#0B0754"/>
<path d="M116.602 52.9643C116.552 52.9875 116.493 52.9875 116.443 52.9643C116.395 52.9382 116.359 52.8939 116.344 52.8413C116.329 52.7888 116.336 52.7324 116.363 52.6849C116.624 52.2265 116.994 51.8398 117.44 51.5594C117.905 51.3119 118.467 51.3395 118.905 51.6313C118.95 51.6632 118.979 51.7117 118.987 51.7657C118.996 51.8198 118.982 51.8749 118.949 51.9186C118.88 52.0096 118.751 52.0291 118.658 51.9625C118.346 51.7644 117.951 51.7522 117.628 51.9306C117.254 52.173 116.943 52.5015 116.722 52.8885C116.693 52.9281 116.651 52.9552 116.602 52.9643Z" fill="white"/>
<path d="M115.988 52.3816C115.933 52.3988 115.873 52.3915 115.824 52.3616C115.777 52.3349 115.742 52.2903 115.728 52.2378C115.714 52.1853 115.721 52.1293 115.748 52.0823C116.008 51.6245 116.379 51.239 116.826 50.9608C117.287 50.7091 117.85 50.7353 118.287 51.0286C118.361 51.1009 118.37 51.2167 118.309 51.3002C118.248 51.3836 118.134 51.4091 118.043 51.3599C117.729 51.1644 117.335 51.1522 117.009 51.3279C116.637 51.5709 116.328 51.8993 116.107 52.2858C116.081 52.3313 116.038 52.3654 115.988 52.3816V52.3816Z" fill="white"/>
<path d="M117.44 53.4352C117.388 53.4567 117.329 53.4567 117.277 53.4352C117.178 53.3779 117.144 53.2511 117.201 53.1519C117.46 52.6929 117.83 52.307 118.279 52.0304C118.741 51.7815 119.302 51.8075 119.739 52.0982C119.784 52.1302 119.813 52.1786 119.822 52.2327C119.83 52.2867 119.816 52.3418 119.783 52.3856C119.751 52.4302 119.701 52.46 119.647 52.4682C119.592 52.4764 119.536 52.4625 119.492 52.4295C119.18 52.2331 118.786 52.2209 118.462 52.3975C118.09 52.6405 117.78 52.9689 117.56 53.3554C117.532 53.396 117.489 53.4244 117.44 53.4352Z" fill="white"/>
<path d="M114.655 48.4544L113.138 48.9493L112.296 48.9972L110.847 49.085C108.932 47.5684 103.763 43.0106 102.757 40.3047C102.757 40.3047 96.1084 55.766 86.921 55.766C86.3223 55.766 87.8988 48.0713 89.3954 46.4748C89.3954 46.4748 97.8684 30.6863 103.364 32.3585C105.819 33.1288 108.309 36.6968 114.655 48.4544Z" fill="#2E3052"/>
<path d="M113.138 48.9493L112.296 48.9972C106.657 44.7308 104.047 41.1149 102.845 38.8001C102.817 38.7387 102.757 38.6975 102.69 38.6923C102.649 38.6951 102.615 38.7219 102.602 38.7602C99.9038 45.1179 96.6631 48.9293 94.4202 51.0127C91.9776 53.2796 90.1896 54.0259 90.1138 54.0578L90.01 53.8064L89.9103 53.555C89.9103 53.555 91.6983 52.8006 94.0769 50.5896C96.272 48.5462 99.4489 44.7986 102.103 38.5486C102.194 38.3137 102.418 38.1564 102.67 38.1495C102.948 38.1428 103.205 38.2986 103.328 38.5486C104.537 40.8834 107.223 44.5711 113.138 48.9493Z" fill="#001030"/>
<path d="M109.327 48.0513C109.59 48.5752 109.945 49.0471 110.376 49.4442C110.376 49.4442 113.625 49.2965 115.202 48.5023L114.495 46.854C112.821 47.4393 111.088 47.8408 109.327 48.0513V48.0513Z" fill="#524E84"/>
<path d="M113.573 25.889C108.956 27.7688 105.268 28.7147 102.127 29.1138V29.1138C102.087 29.1138 101.349 29.1776 101.061 29.1657C99.9719 29.1197 98.9021 28.8608 97.9123 28.4034C97.0862 28.0043 95.9168 27.0185 94.6716 25.8292C93.139 24.3525 91.5266 22.5844 90.4131 21.3193C89.5431 20.3375 88.9764 19.659 88.9764 19.659C89.7466 18.5136 91.4508 17.4719 92.9355 16.9132C92.9355 16.9132 96.0325 22.0696 100.722 24.5999C100.977 24.7396 101.241 24.8713 101.52 24.999C102.59 24.8274 105.479 24.6957 106.733 24.5999C108.806 24.4495 110.868 24.171 112.907 23.7658L113.573 25.889Z" fill="#0077EB"/>
<path d="M112.771 23.5822C112.771 23.5822 113.414 21.9579 114.288 21.4949C115.162 21.0319 117.652 19.3996 118.183 19.8985C118.714 20.3974 118.602 22.7321 116.371 24.6877C115.593 25.4145 114.581 25.8391 113.517 25.885L112.771 23.5822Z" fill="#F9AF8B"/>
<path d="M118.342 21.3792L114.667 24.8115C114.512 24.9435 114.295 24.976 114.108 24.8953L111.857 23.8057C111.796 23.7802 111.747 23.7314 111.721 23.67V23.67L111.61 23.2949L112.208 23.0674L117.987 20.8723L118.303 20.7526L118.418 21.1517V21.1796C118.426 21.2544 118.398 21.3286 118.342 21.3792Z" fill="#001030"/>
<path d="M117.983 20.8523L112.204 23.0474L115.473 19.9943C115.628 19.8631 115.845 19.8307 116.032 19.9105L117.983 20.8523Z" fill="#1F2232"/>
<path d="M113.996 24.5161L111.749 23.4266C111.664 23.4043 111.601 23.3336 111.588 23.2468C111.575 23.1599 111.615 23.0736 111.689 23.0275L115.365 19.5952C115.519 19.4638 115.734 19.4313 115.92 19.5114L118.175 20.6009C118.251 20.627 118.307 20.6936 118.318 20.7734C118.33 20.8533 118.296 20.933 118.231 20.9801L114.559 24.4124C114.407 24.5519 114.188 24.5922 113.996 24.5161Z" fill="#2E3052"/>
<path d="M114.272 23.8975L112.547 23.0554C112.463 23.0332 112.399 22.9624 112.386 22.8756C112.373 22.7887 112.413 22.7025 112.488 22.6563L115.341 20.0062C115.494 19.8735 115.709 19.8395 115.896 19.9184L117.644 20.7645C117.731 20.7844 117.797 20.8561 117.81 20.9448C117.822 21.0335 117.778 21.1206 117.7 21.1636L114.842 23.8336C114.682 23.9669 114.458 23.992 114.272 23.8975V23.8975Z" fill="#2E3052"/>
<path d="M114.224 20.6727C114.224 20.6727 114.747 20.7526 114.802 21.2036C114.858 21.6545 114.367 21.4749 114.056 21.3752C113.846 21.2995 113.613 21.3184 113.418 21.4271C113.278 21.5907 113.302 20.541 114.224 20.6727Z" fill="#F9AF8B"/>
<path d="M116.562 23.1272C117.003 22.4023 117.489 21.7053 118.015 21.0399C118.434 20.549 118.646 21.2634 118.362 21.7583C118.079 22.2532 117.508 23.255 116.562 23.1272Z" fill="#F9AF8B"/>
<path d="M78.3043 47.4487L76.4844 35.715L76.3766 35.0205V34.4977L76.7757 17.875L81.4173 16.3185L81.6648 16.2347L82.6985 15.8835L83.5206 15.6041L88.3897 16.2746L89.1879 16.3824L89.4673 16.4223L92.9475 16.9012C92.9794 27.9205 91.9218 30.2991 93.9612 39.2511C94.9869 42.6434 91.2074 54.6166 78.3043 47.4487Z" fill="#008EFF"/>
<path d="M80.8985 44.4474V44.4474C84.5423 43.4297 87.2043 40.9113 88.7928 38.9797C89.8119 37.7547 90.6852 36.4153 91.3949 34.9886C91.415 34.9448 91.4166 34.8947 91.3993 34.8496C91.3821 34.8046 91.3474 34.7684 91.3032 34.7492C91.26 34.7277 91.2098 34.7249 91.1645 34.7415C91.1192 34.7581 91.0828 34.7927 91.0637 34.837C90.3645 36.2362 89.5061 37.55 88.5054 38.7522C86.9489 40.6399 84.3508 43.0984 80.7987 44.0922C80.7525 44.1052 80.7134 44.1361 80.6902 44.1781C80.6669 44.2201 80.6615 44.2696 80.675 44.3157C80.7004 44.4137 80.8004 44.4727 80.8985 44.4474V44.4474Z" fill="#0077EB"/>
<path d="M85.0412 44.643C88.2101 43.7729 90.8721 41.0989 90.9918 40.9792C91.0481 40.9353 91.0738 40.8628 91.0578 40.7933C91.0418 40.7238 90.987 40.6698 90.9173 40.6549C90.8475 40.64 90.7754 40.6669 90.7324 40.7238C90.7045 40.7557 87.5675 43.9166 84.1791 44.4594C84.0908 44.4861 84.036 44.5742 84.0512 44.6653C84.0664 44.7563 84.1468 44.8219 84.239 44.8186C84.5093 44.7742 84.7771 44.7156 85.0412 44.643Z" fill="#0077EB"/>
<path d="M82.7982 21.2075C85.9671 20.3295 88.6212 17.6475 88.7409 17.5278C88.7971 17.4839 88.8228 17.4114 88.8068 17.3419C88.7909 17.2724 88.7361 17.2185 88.6663 17.2036C88.5966 17.1886 88.5245 17.2155 88.4815 17.2724C88.4496 17.3043 85.3246 20.4652 81.9362 21.024C81.8359 21.0405 81.768 21.1352 81.7845 21.2355C81.801 21.3358 81.8957 21.4037 81.996 21.3871C82.2674 21.3392 82.5348 21.2794 82.7982 21.2075Z" fill="#0077EB"/>
<path d="M110.576 77.8125L111.853 80.6501L109.239 81.7756L107.718 78.8422L110.576 77.8125V77.8125Z" fill="#F9AF8B"/>
<path d="M111.282 80.5983C111.282 80.5983 111.55 79.4528 112.081 79.2653C112.611 79.0777 117.927 80.4985 119.396 80.1712C120.865 79.844 121.032 80.9694 120.993 81.5681C120.953 82.1667 110.109 86.078 110.109 86.078C110.109 86.078 108.453 83.0647 108.381 81.9552C108.309 80.8457 110.324 81.2807 111.282 80.5983Z" fill="#0B0754"/>
<path d="M114.419 81.8315C114.355 81.8853 114.264 81.8947 114.189 81.8553C114.115 81.816 114.072 81.7356 114.08 81.6519C114.137 81.1282 114.322 80.6267 114.619 80.1912C114.945 79.7791 115.471 79.5797 115.988 79.6723C116.042 79.6837 116.089 79.7165 116.118 79.7631C116.147 79.8097 116.156 79.8663 116.143 79.9198C116.118 80.0308 116.007 80.1003 115.896 80.0754C115.527 80.0217 115.159 80.1751 114.938 80.4745C114.694 80.8462 114.541 81.27 114.491 81.7118C114.483 81.7593 114.457 81.802 114.419 81.8315Z" fill="white"/>
<path d="M113.621 81.5441C113.556 81.5979 113.466 81.6073 113.391 81.568C113.317 81.5286 113.274 81.4483 113.282 81.3645C113.339 80.8409 113.524 80.3393 113.821 79.9038C114.146 79.4918 114.672 79.2924 115.19 79.385C115.243 79.3964 115.29 79.4291 115.32 79.4758C115.349 79.5224 115.358 79.5789 115.345 79.6324C115.334 79.6862 115.301 79.7329 115.254 79.7616C115.207 79.7903 115.151 79.7984 115.098 79.7841C114.73 79.7321 114.362 79.8852 114.14 80.1832C113.895 80.5557 113.743 80.9813 113.697 81.4244C113.686 81.4719 113.659 81.5141 113.621 81.5441Z" fill="white"/>
<path d="M115.377 81.9313C115.333 81.9666 115.278 81.9837 115.221 81.9792C115.167 81.9742 115.116 81.9472 115.082 81.9043C115.047 81.8614 115.031 81.8064 115.038 81.7517C115.094 81.2278 115.279 80.7259 115.577 80.2909C115.902 79.8781 116.428 79.6786 116.946 79.7721C116.999 79.7844 117.045 79.8175 117.073 79.8641C117.102 79.9106 117.11 79.9666 117.097 80.0196C117.086 80.0733 117.053 80.12 117.006 80.1487C116.959 80.1774 116.903 80.1856 116.85 80.1712C116.482 80.121 116.115 80.2737 115.892 80.5703C115.647 80.9411 115.495 81.3655 115.449 81.8075C115.439 81.8555 115.414 81.899 115.377 81.9313Z" fill="white"/>
<path d="M111.234 78.3633C110.63 78.868 109.948 79.2722 109.215 79.5606C109.051 79.6364 108.88 79.7083 108.712 79.7801C108.417 79.8998 108.125 80.0116 107.846 80.1074C107.846 80.1074 101.648 68.677 99.2653 60.3876C99.2653 60.3876 78.2764 57.7974 77.55 50.4459C77.524 50.1938 77.524 49.9397 77.55 49.6876C77.6348 48.8996 77.8938 48.1402 78.3083 47.4646C78.7872 46.6385 85.9711 47.4646 89.8544 48.5342C89.8544 48.5342 100.375 52.633 104.266 56.8555C106.23 58.9748 111.234 78.3633 111.234 78.3633Z" fill="#2E3052"/>
<path d="M109.215 79.5446C109.051 79.6205 108.88 79.6923 108.712 79.7641C105.579 74.5758 101.225 62.447 100.251 59.5335C100.19 59.3294 100.021 59.1758 99.8121 59.1344C89.6149 57.2187 83.7361 54.5447 80.6032 52.637C79.5183 51.9929 78.4961 51.2487 77.55 50.414C77.524 50.1619 77.524 49.9078 77.55 49.6557C78.5815 50.635 79.7225 51.4921 80.9504 52.21C84.0474 54.0818 89.8464 56.7079 99.9158 58.5956C100.316 58.6702 100.645 58.9559 100.774 59.342C101.74 62.2754 106.114 74.4561 109.215 79.5446Z" fill="#001030"/>
<path d="M106.729 78.8941L107.718 80.4905C107.718 80.4905 110.185 80.0675 111.853 78.3792L111.234 76.9664C109.769 77.6906 108.264 78.3341 106.729 78.8941Z" fill="#524E84"/>
<path d="M73.3195 51.7869C73.3195 51.7869 74.7483 53.7226 74.6286 54.7283C74.5088 55.7341 73.2197 57.6178 72.186 57.7096C71.1524 57.8014 73.3834 55.2831 72.8486 55.3629C72.214 55.4627 67.9316 58.9548 67.0256 58.9548C66.1197 58.9548 68.0912 57.3225 68.8575 56.9114C68.8575 56.9114 66.8301 57.8174 66.3591 58.2883C65.8882 58.7593 65.5609 57.7495 67.9037 56.2928C67.9037 56.2928 65.7365 57.522 65.5928 57.542C65.1099 57.6059 66.4828 55.9935 67.6642 55.4148C67.6642 55.4148 65.9321 56.2569 65.7525 56.2609C65.509 56.2609 66.0319 55.6981 67.321 54.9877C68.4784 54.3452 70.3741 51.3958 70.3741 51.3958L73.3195 51.7869Z" fill="#F9AF8B"/>
<path d="M76.7957 17.875C76.7957 17.875 72.0065 27.1103 70.893 36.7686L70.3741 51.4357C70.3741 51.4357 70.869 52.4814 73.3195 51.7869L75.6902 37.1238L77.5061 30.4109C77.5061 30.4109 78.3323 22.1534 76.7957 17.875Z" fill="#0077EB"/>
<circle cx="86.3278" cy="6.96492" r="5.31208" transform="rotate(-73.52 86.3278 6.96492)" fill="#2E3052"/>
<path d="M91.6424 6.93557C91.6424 6.93557 93.1949 6.79189 93.2388 5.33915C93.2867 4.08596 91.7102 4.62476 92.0056 3.69085C92.3009 2.75695 92.7359 1.93479 91.5426 1.47981C90.497 1.08071 90.3453 1.81506 89.1161 0.490034C87.6593 -1.07845 85.8514 1.63546 84.3268 1.45986C82.0918 1.20044 81.5929 2.40174 81.1978 3.36359C80.9877 3.98422 81.1129 4.66938 81.5291 5.17552L91.6424 6.93557Z" fill="#2E3052"/>
<path d="M90.4251 9.19849C90.4251 9.19849 91.4468 8.24064 91.9018 9.26235C92.3568 10.2841 91.0078 12.8303 89.6149 11.9044L90.4251 9.19849Z" fill="#FC8664"/>
<path d="M90.0939 11.1302C90.151 11.1383 90.207 11.1095 90.2336 11.0583C90.5112 10.5596 90.9892 10.2036 91.5466 10.0805C91.6154 10.0646 91.6605 9.9987 91.6504 9.92885C91.6363 9.85888 91.569 9.81287 91.4987 9.82508C90.8577 9.9596 90.3087 10.3699 89.9981 10.9466C89.969 11.0106 89.9954 11.0861 90.0579 11.1182L90.0939 11.1302Z" fill="#FD664D"/>
<path d="M91.0397 10.8627C91.063 10.8707 91.0883 10.8707 91.1116 10.8627C91.1428 10.8495 91.1676 10.8245 91.1803 10.793C91.193 10.7616 91.1927 10.7263 91.1794 10.6951C91.0908 10.5053 90.953 10.3427 90.7803 10.2242C90.7193 10.1853 90.6386 10.2011 90.5967 10.2601C90.5772 10.2885 90.57 10.3237 90.5768 10.3575C90.5835 10.3913 90.6037 10.421 90.6327 10.4397C90.7681 10.5272 90.8771 10.65 90.9479 10.7949C90.9675 10.8296 91.0009 10.8542 91.0397 10.8627V10.8627Z" fill="#FD664D"/>
<path d="M83.5206 13.1895L83.0457 15.8715C83.0457 15.8715 83.9397 17.2484 85.0093 17.5398C86.0789 17.8311 86.9609 16.6578 86.9609 16.6578L87.4039 14.0716L83.5206 13.1895Z" fill="#F9AF8B"/>
<path d="M83.5206 13.1895L83.3091 14.3869C83.8918 15.3208 85.1489 15.7518 87.1046 15.8037L87.4119 14.0795L83.5206 13.1895Z" fill="#FC8664"/>
<path d="M81.9082 5.79412C81.7522 6.93847 81.6682 8.09149 81.6568 9.24638C81.6568 9.51777 81.6768 9.7692 81.6967 10.0007C81.9122 12.08 82.7264 15.7198 86.933 15.0055C88.7888 14.6902 89.9422 12.8902 90.6526 10.9745C91.0725 9.7972 91.3785 8.58235 91.5666 7.34664C91.7206 6.35339 91.3399 5.35246 90.5648 4.71255C88.4655 2.97645 85.9152 3.03631 84.1791 3.37156C82.9807 3.60794 82.0668 4.58288 81.9082 5.79412Z" fill="#F9AF8B"/>
<path d="M88.3737 9.19849C88.3218 9.48585 88.4296 9.74127 88.6132 9.7732C88.7968 9.80513 88.9843 9.60159 89.0322 9.31423C89.0801 9.02688 88.9764 8.77145 88.7968 8.73553C88.6172 8.69961 88.4256 8.91114 88.3737 9.19849Z" fill="#2E3052"/>
<path d="M84.5104 8.51601C84.4625 8.80337 84.5663 9.05879 84.7499 9.09072C84.9334 9.12265 85.121 8.91911 85.1729 8.63175C85.2248 8.3444 85.117 8.08897 84.9334 8.05305C84.7499 8.01713 84.5623 8.22866 84.5104 8.51601Z" fill="#2E3052"/>
<path d="M90.0579 7.85351C90.0579 7.85351 88.7808 7.0553 87.6434 7.33866V7.84553C88.4259 7.83549 89.1975 8.02943 89.8823 8.40826C89.9901 8.19275 90.1058 8.10095 90.0579 7.85351Z" fill="#2E3052"/>
<path d="M83.776 6.76396C83.776 6.76396 85.2447 6.46463 86.2225 7.10719L86.0469 7.56217C85.3155 7.2856 84.5249 7.2031 83.7521 7.3227C83.7202 7.08324 83.6443 6.95952 83.776 6.76396Z" fill="#2E3052"/>
<path d="M86.2066 10.9146C86.0499 10.8821 85.9 10.8227 85.7636 10.739C85.7244 10.7148 85.7011 10.6715 85.7025 10.6254C85.7038 10.5793 85.7297 10.5375 85.7703 10.5156C85.8109 10.4938 85.8601 10.4953 85.8993 10.5195C86.007 10.5834 86.2704 10.7071 86.4021 10.6552C86.4301 10.6552 86.466 10.6233 86.486 10.5475C86.6086 9.89795 86.6979 9.24255 86.7534 8.58387C86.7617 8.51259 86.8256 8.46112 86.897 8.46813C86.931 8.47116 86.9623 8.48763 86.984 8.51386C87.0057 8.54009 87.0161 8.57392 87.0128 8.60782C86.9537 9.27732 86.8605 9.94337 86.7334 10.6033C86.7038 10.7299 86.6145 10.8341 86.4939 10.8827C86.4033 10.9213 86.3034 10.9324 86.2066 10.9146Z" fill="#FC8664"/>
<path d="M87.6513 11.9802C87.4558 12.4871 86.9369 13.3891 85.7715 13.1776C84.6062 12.966 84.4306 12.0321 84.4266 11.4055L87.6513 11.9802Z" fill="white"/>
<path d="M85.6718 13.852C85.4529 13.8069 85.2486 13.7081 85.0771 13.5647C85.03 13.5141 85.03 13.4357 85.0771 13.3851C85.1012 13.3602 85.1343 13.3462 85.1689 13.3462C85.2035 13.3462 85.2366 13.3602 85.2607 13.3851C85.3978 13.4934 85.5573 13.5698 85.7277 13.6086C85.8898 13.6248 86.0535 13.6044 86.2066 13.5487C86.2383 13.5357 86.274 13.5359 86.3055 13.5494C86.337 13.563 86.3618 13.5886 86.3742 13.6206C86.3885 13.6522 86.3888 13.6883 86.3752 13.7202C86.3615 13.752 86.3351 13.7767 86.3024 13.7882C86.101 13.8625 85.884 13.8844 85.6718 13.852Z" fill="#FC8664"/>
<path d="M90.4052 10.0725C90.6119 9.58517 90.7464 9.07021 90.8043 8.54397C90.8043 7.90541 90.3453 7.45442 90.6207 6.88769C90.8961 6.32096 90.3812 5.57464 89.9342 5.38706C89.4872 5.19948 88.3737 5.23939 87.3999 4.54495C86.4261 3.85051 84.6461 3.91835 84.243 4.51701C83.7561 5.24338 84.219 5.40302 83.1175 6.08549C82.6785 6.36087 82.9738 7.31872 82.9339 7.90541C82.9228 8.13533 82.8907 8.36376 82.8381 8.58787L82.8102 8.72756L81.6728 8.52801C81.7047 7.61805 81.8085 6.62428 81.9122 5.79414C82.0701 4.58116 82.9864 3.60531 84.1871 3.37158C85.9192 3.03633 88.4695 2.97248 90.5728 4.71257C91.3479 5.35248 91.7285 6.35341 91.5745 7.34666C91.4258 8.29962 91.2111 9.24111 90.932 10.1643L90.4052 10.0725Z" fill="#2E3052"/>
<path d="M82.0838 9.10669C82.1411 8.81076 82.1705 8.51012 82.1716 8.2087C82.2362 7.80681 82.0696 7.40273 81.7406 7.16305C81.4494 6.92375 81.022 6.95353 80.7668 7.2309C79.9925 8.02911 80.1761 11.0024 81.8005 10.6113L82.0838 9.10669Z" fill="#F9AF8B"/>
<path d="M81.6528 9.74127C81.5988 9.7213 81.5657 9.66669 81.573 9.60957C81.5929 9.03849 81.3695 8.48579 80.9584 8.08898C80.9186 8.03826 80.9214 7.96622 80.9649 7.91872C81.0085 7.87121 81.08 7.8622 81.134 7.89741C81.6041 8.34867 81.8534 8.98291 81.8164 9.63351C81.8145 9.66788 81.7983 9.69989 81.7718 9.72186C81.7453 9.74382 81.7109 9.75375 81.6767 9.74925L81.6528 9.74127Z" fill="#FC8664"/>
<path d="M80.9863 9.02288C80.9418 9.00688 80.9097 8.96758 80.903 8.92074C80.8963 8.8739 80.9161 8.8272 80.9544 8.79938C81.1333 8.68335 81.34 8.61721 81.553 8.60781C81.616 8.61889 81.6619 8.67359 81.6619 8.73752C81.6619 8.80144 81.616 8.85614 81.553 8.86722C81.3911 8.87639 81.2337 8.9243 81.0941 9.00691C81.0628 9.02921 81.0227 9.03515 80.9863 9.02288V9.02288Z" fill="#FC8664"/>
<path d="M142.053 70.453C140.938 72.5297 139.665 74.5178 138.246 76.3997C137.686 77.1342 137.061 77.8167 136.378 78.4391C135.368 79.3371 134.382 79.804 133.584 79.4049C130.603 77.9322 123.954 66.2105 123.954 66.2105L125.59 64.3108C125.59 64.3108 128.548 67.6553 130.715 69.6588C132.71 71.5067 134.243 72.8876 134.243 72.8876C134.518 72.4885 134.813 72.0255 135.121 71.5466C135.428 71.0676 135.783 70.5049 136.127 69.9502C138.617 65.9591 141.618 61.569 141.618 61.569L142.053 70.453Z" fill="#F9AF8B"/>
<path d="M126.017 65.4602C126.017 65.4602 126.692 64.3547 126.416 63.3609C126.141 62.3672 125.902 60.1242 124.82 60.1881C124.421 60.1881 125.004 61.1459 124.736 62.012C124.062 61.6851 123.415 61.3061 122.8 60.8785C122.114 60.3756 120.701 59.5535 120.043 59.1783C119.964 59.1315 119.864 59.1429 119.798 59.2062C119.732 59.2695 119.716 59.3691 119.759 59.4497C119.927 59.7371 120.338 60.1641 121.296 60.7628C121.296 60.7628 118.921 59.4338 118.526 59.7251C118.131 60.0165 121.124 61.6248 121.124 61.6248C121.124 61.6248 118.706 60.647 118.506 61.0062C118.386 61.2217 120.757 62.6026 120.757 62.6026C120.757 62.6026 118.402 61.8763 118.841 62.427C118.969 62.5907 123.443 64.6141 124.377 66.9649C124.389 66.9768 125.694 66.2624 126.017 65.4602Z" fill="#F9AF8B"/>
<path d="M138.246 76.3997C137.686 77.1342 137.061 77.8167 136.378 78.4391L135.113 71.5466C135.436 71.0397 135.775 70.5049 136.119 69.9502L138.246 76.3997Z" fill="#FC8664"/>
<path d="M141.702 61.2497L135.4 70.3413L137.396 78.4391L142.341 70.5528C142.341 70.5528 143.279 65.2727 141.702 61.2497Z" fill="#BED1F9"/>
<path d="M144.935 139.027V141.897L147.613 141.853L147.788 138.812L144.935 139.027V139.027Z" fill="#F9AF8B"/>
<path d="M151.736 97.1012C151.716 97.4405 151.624 99.0967 151.484 101.364C151.109 107.634 150.403 118.781 149.987 121.283C149.56 123.853 149.752 132.278 149.892 136.688C149.912 137.409 149.638 138.106 149.133 138.62C148.947 138.805 148.738 138.964 148.511 139.095C148.1 139.324 147.636 139.444 147.166 139.442H145.122C144.392 139.45 143.69 139.161 143.176 138.642C142.663 138.123 142.381 137.418 142.396 136.688C142.512 132.961 142.652 126.16 142.396 120.904C142.141 115.903 142.512 107.055 142.796 101.539V101.539C142.911 99.3362 143.011 97.6679 143.051 96.9895L151.736 97.1012Z" fill="#4951EC"/>
<path d="M143.043 96.9895L151.736 97.1012C151.716 97.4405 151.624 99.0967 151.484 101.364C148.602 101.759 145.683 101.817 142.788 101.539C142.903 99.3562 143.003 97.6679 143.043 96.9895Z" fill="#4951EC"/>
<path d="M149.097 128.826C149.173 131.644 149.253 134.561 149.201 136.912C149.201 137.57 149.165 138.137 149.133 138.62C148.95 138.808 148.74 138.968 148.511 139.095C148.559 138.532 148.599 137.814 148.619 136.9C148.67 134.561 148.591 131.652 148.515 128.838C148.419 125.402 148.331 122.153 148.515 120.772C148.934 117.743 149.864 101.344 150.111 96.9655L150.694 96.9895C150.45 101.38 149.497 117.803 149.097 120.848C148.918 122.185 149.006 125.41 149.097 128.826Z" fill="#4951EC"/>
<path d="M145.621 141.789C145.621 141.789 145.067 141.023 144.612 141.047C144.157 141.071 140.597 143.721 139.391 143.92C138.186 144.12 138.397 144.99 138.593 145.437C138.789 145.884 148.172 145.477 148.172 145.477C148.172 145.477 148.487 142.755 148.203 141.913C147.92 141.071 146.555 142.004 145.621 141.789Z" fill="#0B0754"/>
<path d="M143.642 143.657C143.683 143.677 143.732 143.677 143.773 143.657C143.812 143.636 143.841 143.601 143.854 143.559C143.867 143.517 143.862 143.472 143.841 143.433C143.637 143.063 143.343 142.751 142.987 142.523C142.613 142.313 142.154 142.324 141.79 142.551C141.716 142.603 141.698 142.705 141.75 142.779C141.805 142.853 141.909 142.871 141.985 142.819C142.245 142.669 142.564 142.669 142.824 142.819C143.124 143.022 143.369 143.296 143.538 143.617C143.567 143.641 143.604 143.655 143.642 143.657Z" fill="white"/>
<path d="M144.157 143.198C144.199 143.213 144.246 143.213 144.288 143.198C144.327 143.177 144.356 143.142 144.369 143.1C144.382 143.058 144.377 143.013 144.356 142.974C144.15 142.603 143.856 142.289 143.498 142.06C143.123 141.855 142.666 141.866 142.301 142.088C142.227 142.142 142.209 142.245 142.261 142.32C142.316 142.394 142.42 142.412 142.496 142.36C142.755 142.209 143.075 142.209 143.334 142.36C143.632 142.557 143.877 142.824 144.049 143.138C144.076 143.17 144.115 143.192 144.157 143.198V143.198Z" fill="white"/>
<path d="M142.955 144.012C142.998 144.028 143.044 144.028 143.087 144.012C143.126 143.992 143.155 143.956 143.168 143.914C143.181 143.872 143.176 143.827 143.155 143.788C142.951 143.417 142.657 143.103 142.301 142.875C141.926 142.664 141.466 142.676 141.103 142.906C141.067 142.931 141.042 142.969 141.035 143.012C141.027 143.055 141.038 143.099 141.063 143.134C141.118 143.209 141.223 143.226 141.299 143.174C141.557 143.023 141.875 143.023 142.133 143.174C142.43 143.373 142.677 143.64 142.851 143.952C142.877 143.985 142.914 144.006 142.955 144.012V144.012Z" fill="white"/>
<path d="M157.982 139.027L158.269 141.889L160.659 141.853L160.835 138.812L157.982 139.027V139.027Z" fill="#F9AF8B"/>
<path d="M162.902 120.908C162.635 126.164 162.775 132.965 162.902 136.692C162.918 137.422 162.636 138.127 162.123 138.646C161.609 139.165 160.907 139.454 160.177 139.446H158.125C157.689 139.446 157.259 139.345 156.868 139.151C156.644 139.036 156.437 138.889 156.253 138.716C155.684 138.2 155.371 137.46 155.399 136.692C155.535 132.282 155.727 123.857 155.3 121.287C154.872 118.717 154.154 107.254 153.783 101.048C153.659 98.973 153.575 97.4924 153.551 97.1252L162.26 97.2369C162.284 97.6799 162.324 98.3624 162.372 99.2325C162.655 104.185 163.198 115.117 162.902 120.908Z" fill="#4951EC"/>
<path d="M162.372 99.2205C159.541 99.9734 156.675 100.582 153.783 101.044C153.659 98.969 153.575 97.4884 153.551 97.1212L162.26 97.2329C162.284 97.6759 162.324 98.3584 162.372 99.2205Z" fill="#4951EC"/>
<path d="M156.76 136.9C156.78 137.842 156.82 138.576 156.872 139.143C156.645 139.03 156.435 138.884 156.249 138.712C156.217 138.209 156.19 137.614 156.174 136.912C156.122 134.561 156.202 131.644 156.277 128.826C156.369 125.41 156.457 122.185 156.277 120.844C155.858 117.795 154.92 101.352 154.681 96.9815L155.252 96.9615C155.495 101.332 156.449 117.743 156.848 120.772C157.04 122.153 156.952 125.402 156.848 128.838C156.788 131.652 156.708 134.561 156.76 136.9Z" fill="#4951EC"/>
<path d="M159.203 141.45C159.713 141.309 160.234 141.205 160.759 141.138C161.095 141.138 163.353 143.617 164.112 143.765C165.493 144.028 165.493 146.135 164.655 146.243C162.228 146.546 158.077 145.541 158.077 145.541C158.077 145.541 157.678 142.835 157.862 141.985C158.045 141.134 158.524 141.701 159.203 141.45Z" fill="#0B0754"/>
<path d="M161.21 143.761C161.166 143.769 161.121 143.76 161.083 143.737C161.045 143.714 161.019 143.676 161.009 143.633C161 143.59 161.01 143.545 161.035 143.509C161.274 143.158 161.598 142.872 161.977 142.679C162.372 142.507 162.829 142.56 163.174 142.819C163.233 142.881 163.235 142.979 163.179 143.044C163.122 143.109 163.025 143.121 162.954 143.07C162.712 142.894 162.394 142.86 162.12 142.982C161.802 143.152 161.528 143.396 161.322 143.693C161.296 143.73 161.255 143.754 161.21 143.761V143.761Z" fill="white"/>
<path d="M160.747 143.258C160.702 143.268 160.654 143.259 160.616 143.234C160.58 143.209 160.555 143.172 160.546 143.129C160.538 143.086 160.547 143.042 160.572 143.006C160.809 142.655 161.132 142.369 161.51 142.176C161.905 142.004 162.362 142.057 162.707 142.316C162.741 142.343 162.763 142.383 162.767 142.427C162.771 142.471 162.756 142.514 162.727 142.547C162.66 142.612 162.554 142.612 162.487 142.547C162.245 142.37 161.927 142.337 161.653 142.459C161.334 142.629 161.06 142.872 160.855 143.17C160.833 143.213 160.794 143.244 160.747 143.258V143.258Z" fill="white"/>
<path d="M161.861 144.184C161.816 144.196 161.767 144.187 161.729 144.16C161.693 144.135 161.668 144.098 161.66 144.055C161.652 144.012 161.661 143.968 161.685 143.932C161.924 143.582 162.246 143.296 162.623 143.102C163.018 142.925 163.479 142.98 163.82 143.246C163.855 143.273 163.877 143.313 163.88 143.357C163.884 143.401 163.87 143.444 163.84 143.477C163.773 143.54 163.668 143.54 163.601 143.477C163.358 143.302 163.04 143.27 162.767 143.393C162.448 143.562 162.174 143.804 161.969 144.1C161.945 144.141 161.907 144.171 161.861 144.184V144.184Z" fill="white"/>
<path d="M164.235 97.9792C156.5 99.9209 148.404 99.9209 140.668 97.9792C140.628 95.1097 140.589 83.6115 140.812 74.1966C140.812 74.013 140.812 73.8255 140.812 73.6419C140.812 73.5541 140.812 73.4623 140.812 73.3705V73.3705C140.812 73.2507 140.812 73.135 140.812 73.0193C140.98 66.8012 141.271 61.7246 141.774 61.0461V61.0461C142.947 59.4697 148.83 56.9553 150.458 55.8298C150.594 56.0454 151.396 57.2347 152.454 57.3225C153.603 57.4223 154.629 56.0932 154.629 56.0932V55.8418C156.265 56.9633 161.593 59.2941 162.763 60.8665C164.068 62.5747 164.287 93.0862 164.235 97.9792Z" fill="#BED1F9"/>
<path d="M143.211 69.7706C142.412 71.0014 141.709 72.2916 141.107 73.6299L140.96 73.9452C140.908 74.053 140.88 74.1168 140.88 74.1208C140.865 74.1521 140.841 74.1784 140.812 74.1966C140.812 74.013 140.812 73.8255 140.812 73.6419C140.812 73.5541 140.812 73.4623 140.812 73.3705V73.3705C140.9 73.1789 141.008 72.9714 141.127 72.708C141.633 71.6174 142.224 70.5685 142.895 69.571C142.955 69.4917 143.067 69.4756 143.147 69.5351C143.187 69.5577 143.216 69.5953 143.228 69.6395C143.24 69.6837 143.234 69.7309 143.211 69.7706Z" fill="#0077EB"/>
<path d="M158.269 62.8341V62.8341C155.745 62.7353 153.307 61.8925 151.261 60.4116C150.333 59.7677 149.498 58.998 148.782 58.1247C148.753 58.0871 148.741 58.0392 148.748 57.9923C148.756 57.9454 148.783 57.9038 148.822 57.8773C148.86 57.8487 148.908 57.8364 148.955 57.8431C149.002 57.8499 149.045 57.8751 149.074 57.9132C149.109 57.9571 152.482 62.3033 158.277 62.4789C158.325 62.4789 158.371 62.4984 158.405 62.5329C158.439 62.5675 158.458 62.6142 158.456 62.6625C158.45 62.7608 158.367 62.8365 158.269 62.8341Z" fill="#0077EB"/>
<path d="M147.74 91.9887C147.645 91.991 147.565 91.9165 147.561 91.8211C147.558 91.7734 147.573 91.7264 147.605 91.6905C147.636 91.6545 147.681 91.6326 147.729 91.6295C152.857 91.3022 155.914 88.756 157.578 86.6806C158.652 85.3468 159.465 83.8221 159.973 82.1867C160.002 82.0917 160.1 82.0357 160.197 82.059C160.292 82.0826 160.351 82.1787 160.328 82.2745C159.807 83.9561 158.968 85.5222 157.858 86.8882C156.15 89.0274 153.005 91.6495 147.737 91.9887H147.74Z" fill="#0077EB"/>
<path d="M150.494 88.7999C150.412 88.7991 150.34 88.7437 150.319 88.6642C150.307 88.6186 150.313 88.5701 150.337 88.5296C150.361 88.4891 150.401 88.4599 150.446 88.4486C154.9 87.2513 155.763 83.6235 155.77 83.5836C155.794 83.4877 155.889 83.4278 155.986 83.4479C156.083 83.4679 156.145 83.5624 156.126 83.6594C155.921 84.4186 155.574 85.1323 155.104 85.7627C153.988 87.2787 152.372 88.3516 150.542 88.7919L150.494 88.7999Z" fill="#0077EB"/>
<path d="M170.018 97.664C169.907 99.2285 168.949 100.386 168.945 101.416C168.941 102.445 167.748 101.771 168.286 99.7393C168.825 97.7079 168.015 95.7483 167.572 95.7483C167.129 95.7483 167.716 98.0391 167.249 98.7934C166.782 99.5477 166.427 97.9633 166.019 96.9815C165.612 95.9997 165.832 93.8565 166.215 92.3718C166.598 90.8872 164.71 81.4643 164.958 78.8023L164.275 75.358L163.876 73.3625L163.804 71.2672L167.444 69.8504C167.584 70.5249 167.724 71.2233 167.863 71.9257L168.043 72.8556C168.53 75.366 168.969 77.8365 169.148 79.4209C169.639 83.8111 168.833 92.755 168.833 92.755C168.833 92.755 170.11 96.1993 170.018 97.664Z" fill="#F9AF8B"/>
<path d="M168.023 72.8636C167.201 73.7815 165.892 74.9509 164.255 75.378L163.856 73.3824L163.785 71.2871L167.424 69.8703C167.564 70.5448 167.704 71.2432 167.843 71.9457L168.023 72.8636Z" fill="#FC8664"/>
<path d="M169.045 70.8721C168.684 71.2666 168.282 71.6224 167.847 71.9337C166.699 72.8167 165.304 73.319 163.856 73.3705C163.657 67.5595 163.361 62.6466 162.926 61.2058C163.709 62.1357 167.4 66.7134 169.045 70.8721Z" fill="#BED1F9"/>
<path d="M161.37 69.1879C162.168 70.4179 162.871 71.7067 163.473 73.0432L163.621 73.3625C163.673 73.4703 163.701 73.5341 163.701 73.5381C163.732 73.6023 163.797 73.6428 163.868 73.6419V73.6419C163.868 73.5541 163.868 73.4623 163.868 73.3705H164.028L163.86 73.0073C163.753 72.7798 163.605 72.4685 163.433 72.1133C162.927 71.0237 162.337 69.9749 161.669 68.9763C161.608 68.8965 161.494 68.8805 161.414 68.9404C161.374 68.9663 161.346 69.0076 161.338 69.0546C161.33 69.1015 161.341 69.1498 161.37 69.1879V69.1879Z" fill="#0077EB"/>
<path d="M158.077 46.4828C158.077 49.6318 156.082 51.8029 152.889 51.8029C149.696 51.8029 147.437 49.4681 147.437 46.3192C147.437 43.1703 149.341 40.7876 152.554 40.7876C156.401 40.7876 158.077 43.3379 158.077 46.4828Z" fill="#2E3052"/>
<path d="M157.355 47.8398C157.355 47.8398 158.249 46.6744 158.911 47.6362C159.574 48.5981 158.636 51.4517 157.012 50.7532L157.355 47.8398Z" fill="#FC8664"/>
<path d="M157.367 49.8672C157.428 49.8676 157.482 49.8267 157.499 49.7675C157.702 49.2025 158.138 48.752 158.696 48.5302C158.745 48.5153 158.781 48.4741 158.79 48.4238C158.799 48.3735 158.778 48.3225 158.737 48.2918C158.697 48.2612 158.642 48.2562 158.596 48.2788C157.958 48.5294 157.462 49.0473 157.239 49.6956C157.229 49.7306 157.234 49.7679 157.252 49.7994C157.27 49.8309 157.3 49.8539 157.335 49.8632L157.367 49.8672Z" fill="#FD664D"/>
<path d="M158.305 49.4322C158.33 49.4381 158.356 49.4381 158.381 49.4322C158.443 49.3914 158.461 49.3075 158.421 49.2446C158.287 49.0685 158.109 48.9308 157.906 48.8455C157.836 48.8143 157.755 48.8445 157.722 48.9134C157.708 48.9461 157.707 48.9833 157.721 49.0165C157.734 49.0496 157.761 49.0758 157.794 49.089C157.951 49.1557 158.088 49.2615 158.193 49.3963C158.223 49.4236 158.264 49.4367 158.305 49.4322V49.4322Z" fill="#FD664D"/>
<path d="M148.156 47.8398C148.156 47.8398 147.262 46.6744 146.599 47.6362C145.937 48.5981 146.874 51.4517 148.499 50.7532L148.156 47.8398Z" fill="#FC8664"/>
<path d="M148.144 49.8672C148.082 49.8676 148.028 49.8267 148.012 49.7675C147.808 49.2025 147.373 48.752 146.815 48.5302C146.745 48.5025 146.711 48.4241 146.739 48.3546C146.766 48.2854 146.845 48.2515 146.914 48.2788C147.553 48.528 148.05 49.0464 148.271 49.6956C148.281 49.7306 148.276 49.7679 148.258 49.7994C148.24 49.8309 148.211 49.8539 148.176 49.8632L148.144 49.8672Z" fill="#FD664D"/>
<path d="M147.206 49.4322C147.181 49.4381 147.155 49.4381 147.13 49.4322C147.067 49.3914 147.049 49.3075 147.09 49.2446C147.223 49.0685 147.401 48.9308 147.605 48.8455C147.674 48.8143 147.756 48.8445 147.788 48.9134C147.803 48.9461 147.803 48.9833 147.79 49.0165C147.776 49.0496 147.75 49.0758 147.717 49.089C147.56 49.1572 147.423 49.2627 147.317 49.3963C147.287 49.4236 147.246 49.4367 147.206 49.4322V49.4322Z" fill="#FD664D"/>
<path d="M150.558 53.1718V56.0015C150.558 56.0015 151.42 57.4462 152.586 57.542C153.751 57.6378 154.785 56.3008 154.785 56.3008V53.3714L150.558 53.1718Z" fill="#F9AF8B"/>
<path d="M150.558 53.1718V54.429C151.356 55.2791 152.729 55.4906 154.785 55.1913V53.3714L150.558 53.1718Z" fill="#FC8664"/>
<path d="M157.834 47.748C157.791 48.3746 157.712 48.9982 157.598 49.6158C157.199 51.7031 156.337 53.7545 154.457 54.4051C150.195 55.8977 148.674 52.3177 148.072 50.2304C148.008 49.9989 147.948 49.7395 147.892 49.4641C147.796 48.9693 147.721 48.4145 147.665 47.8677C147.593 47.1892 147.545 46.5028 147.517 45.9001C147.464 44.6195 148.242 43.4507 149.445 43.0066C151.193 42.3521 153.835 41.8093 156.361 43.2261C157.283 43.7334 157.865 44.6927 157.89 45.7445C157.894 46.3072 157.886 47.0017 157.834 47.748Z" fill="#F9AF8B"/>
<path fill-rule="evenodd" clip-rule="evenodd" d="M156.891 48.9643C157.082 48.4335 157.246 47.9752 157.303 47.8717L157.838 47.7719C157.795 48.3985 157.716 49.0221 157.602 49.6397C157.215 51.7191 156.341 53.7705 154.461 54.429C150.207 55.9216 148.686 52.3417 148.076 50.2544C148.012 50.0229 147.952 49.7635 147.896 49.4881C147.8 49.0052 147.725 48.4504 147.669 47.8917H148.287C148.319 47.985 148.383 48.1932 148.466 48.4604C148.726 49.3018 149.167 50.7272 149.337 50.9847C149.82 49.8313 152.278 50.5856 152.278 50.5856C152.427 50.6299 152.582 50.6527 152.737 50.6535C152.897 50.6536 153.056 50.6294 153.208 50.5816C153.208 50.5816 155.639 49.7914 156.142 50.877C156.275 50.6776 156.611 49.743 156.891 48.9643ZM154.453 52.7009C154.66 52.5804 154.849 52.4328 155.016 52.2619C155.019 52.2444 155.024 52.2223 155.029 52.1964C155.107 51.821 155.352 50.6479 152.757 51.0885C149.975 50.7213 150.415 52.186 150.415 52.186C150.652 52.4079 150.913 52.6033 151.193 52.7687C151.69 53.0562 152.255 53.2076 152.829 53.2077C152.888 53.205 152.941 53.2043 152.991 53.2036C153.307 53.1994 153.524 53.1965 154.453 52.7009Z" fill="#2E3052"/>
<path d="M154.581 48.211C154.581 48.5103 154.741 48.7577 154.936 48.7577C155.132 48.7577 155.292 48.5103 155.292 48.211C155.292 47.9116 155.132 47.6602 154.936 47.6602C154.741 47.6602 154.581 47.9076 154.581 48.211Z" fill="#2E3052"/>
<path d="M150.395 48.199C150.395 48.4983 150.554 48.7457 150.75 48.7457C150.945 48.7457 151.105 48.4983 151.105 48.199C151.105 47.8996 150.945 47.6522 150.75 47.6522C150.554 47.6522 150.395 47.8956 150.395 48.199Z" fill="#2E3052"/>
<path d="M156.345 46.6744C156.345 46.6744 154.984 46.1476 153.951 46.5906L154.054 47.1613C154.054 47.1613 155.591 47.0336 156.369 47.3409C156.439 47.1227 156.431 46.887 156.345 46.6744Z" fill="#2E3052"/>
<path d="M149.576 46.6744C149.576 46.6744 150.937 46.1476 151.971 46.5906L151.867 47.1613C151.867 47.1613 150.327 47.0336 149.552 47.3409C149.482 47.1227 149.491 46.887 149.576 46.6744V46.6744Z" fill="#2E3052"/>
<path d="M152.709 50.3262C152.539 50.3198 152.37 50.2861 152.21 50.2264C152.177 50.214 152.149 50.1882 152.135 50.1549C152.12 50.1217 152.12 50.0841 152.135 50.0508C152.164 49.981 152.244 49.9474 152.314 49.975C152.486 50.0554 152.681 50.0737 152.865 50.0269C152.907 49.9998 152.933 49.9532 152.933 49.9032C152.941 49.2144 152.913 48.5256 152.849 47.8398C152.847 47.7656 152.903 47.7024 152.977 47.6961C153.013 47.6928 153.049 47.704 153.076 47.7272C153.104 47.7504 153.121 47.7838 153.124 47.8198C153.19 48.5216 153.217 49.2264 153.204 49.9311C153.198 50.0671 153.123 50.1904 153.005 50.2584C152.914 50.307 152.812 50.3304 152.709 50.3262Z" fill="#FC8664"/>
<path d="M154.581 51.316C154.469 51.8667 154.098 52.8845 152.841 52.8845C151.584 52.8845 151.245 51.9545 151.105 51.316H154.581Z" fill="white"/>
<path d="M147.669 47.8717H148.291C148.219 47.2611 148.124 46.1795 148.634 46.0278C150.259 45.5369 148.156 44.4314 148.886 43.8567C149.616 43.282 151.44 43.5334 152.709 43.4935C153.983 43.4369 155.259 43.4676 156.529 43.5853C157.028 43.6971 156.756 44.5073 156.573 45.1378C156.389 45.7684 157.183 46.4589 157.319 47.1054C157.353 47.3597 157.353 47.6174 157.319 47.8717H157.838C157.902 47.0735 157.91 46.3431 157.898 45.7485C157.873 44.6967 157.291 43.7374 156.369 43.2301C153.855 41.8333 151.201 42.3561 149.453 43.0146C148.25 43.4561 147.471 44.6242 147.525 45.9041C147.541 46.4988 147.585 47.1852 147.669 47.8717Z" fill="#2E3052"/>
<path d="M56.3895 116.793H24.7964C25.3152 113.62 27.8296 111.317 30.763 111.329L40.5929 111.357L50.4229 111.329C53.3523 111.329 55.8747 113.62 56.3895 116.793Z" fill="white"/>
<rect x="27.2788" y="116.338" width="1.72014" height="29.4579" fill="white"/>
<rect x="52.1829" y="116.338" width="1.72014" height="29.4579" fill="white"/>
<rect x="29.0029" y="124.592" width="23.18" height="1.66027" fill="#DCEDF9"/>
<path d="M32.8583 77.138C32.8583 77.138 27.5821 84.1742 26.8717 90.3085C26.3729 94.6427 32.8583 101.12 32.8583 101.12L35.0853 100.011L32.8623 94.994C32.0641 92.5554 31.0982 91.5896 31.8166 89.1271L33.4131 85.6549L32.8583 77.138Z" fill="#0077EB"/>
<path d="M49.489 77.0303C49.489 77.0303 54.6773 84.5334 55.1283 90.6956C55.4995 96.0077 49.1418 101.124 49.1418 101.124L47.2979 100.206L49.8482 95.1416C50.6464 92.6991 51.0176 91.2264 49.936 88.5724L48.567 85.6589L49.489 77.0303Z" fill="#0077EB"/>
<path d="M33.9239 93.1621L30.4278 104.289C30.4278 104.289 45.5698 106.221 50.1994 104.972L47.8487 92.8548L49.489 77.0303C47.2252 76.0653 44.8187 75.4774 42.365 75.2902C38.773 75.0308 36.5221 75.6214 32.8623 77.138L33.9239 93.1621Z" fill="#008EFF"/>
<path d="M37.7154 80.4905C41.0599 80.0914 44.1649 77.8045 44.3086 77.6968C44.3806 77.6319 44.3913 77.5229 44.3333 77.4452C44.2753 77.3676 44.1678 77.3469 44.0851 77.3974C44.0492 77.4254 40.3894 80.1233 36.8733 80.1712C36.7812 80.1848 36.713 80.2637 36.713 80.3568C36.713 80.4499 36.7812 80.5289 36.8733 80.5424C37.1547 80.5392 37.4357 80.5219 37.7154 80.4905Z" fill="#0077EB"/>
<path d="M40.4094 140.105L40.6807 142.559L43.2949 142.619L43.5144 140.584L40.4094 140.105V140.105Z" fill="#F9AF8B"/>
<path d="M39.9983 101.152C39.9983 101.152 33.2135 100.781 30.9426 102.657C28.6717 104.533 29.1107 109.912 31.4455 111.381C33.7802 112.85 37.7593 115.719 37.7593 115.719L40.3096 140.907L43.6581 141.019C43.6581 141.019 46.7392 115.735 45.1747 110.842C43.6102 105.949 39.9983 101.152 39.9983 101.152Z" fill="#001030"/>
<path d="M43.9454 139.769C44.0989 140.339 44.0682 140.943 43.8576 141.494L40.0103 141.41C39.8777 140.857 39.8519 140.284 39.9344 139.722L43.9454 139.769Z" fill="#2E3052"/>
<path d="M49.5728 100.953H31.8166L30.1763 91.3741C30.1063 90.9758 30.2171 90.5671 30.4785 90.2587C30.7399 89.9502 31.125 89.7739 31.5293 89.7777H49.8881C50.291 89.7763 50.6738 89.9536 50.9335 90.2617C51.1931 90.5699 51.3028 90.9772 51.2331 91.3741L49.5728 100.953Z" fill="white"/>
<path d="M48.148 103.048H33.2654C32.4668 103.048 31.8188 102.402 31.8166 101.603V100.953H49.5927V101.591C49.5959 101.976 49.4451 102.347 49.1738 102.62C48.9025 102.894 48.5332 103.048 48.148 103.048V103.048Z" fill="#DCEDF9"/>
<path d="M42.2772 95.7642C42.2788 96.3897 41.9031 96.9543 41.3255 97.1944C40.748 97.4345 40.0827 97.3026 39.6405 96.8604C39.1982 96.4181 39.0664 95.7528 39.3064 95.1753C39.5465 94.5978 40.1112 94.2221 40.7366 94.2237C41.5874 94.2237 42.2772 94.9134 42.2772 95.7642V95.7642Z" fill="#DCEDF9"/>
<path d="M29.3103 133.196L28.7316 135.627L31.0743 136.09L32.0321 133.919L29.3103 133.196V133.196Z" fill="#F9AF8B"/>
<path d="M43.4386 100.737C43.4386 100.737 38.9047 99.1726 36.2547 102.453C33.6046 105.734 29.1347 133.436 29.1347 133.436L32.1838 134.697L41.9898 110.096C41.9898 110.096 49.9719 114.65 50.9377 108.172C51.712 103.048 43.4386 100.737 43.4386 100.737Z" fill="#2E3052"/>
<path d="M32.8862 133.428C32.8519 134.035 32.627 134.616 32.2437 135.088L28.4961 133.763C28.5429 133.178 28.7028 132.607 28.967 132.083L32.8862 133.428Z" fill="#524E84"/>
<path d="M30.5195 135.228C29.9256 134.919 29.3108 134.652 28.6797 134.429C28.2806 134.35 24.8084 136.8 23.8306 136.776C22.0545 136.732 21.4878 139.338 22.4936 139.694C25.415 140.719 30.8149 140.592 30.8149 140.592C30.8149 140.592 32.0122 137.351 32.0361 136.253C32.0601 135.156 31.2938 135.715 30.5195 135.228Z" fill="#0B0754"/>
<path d="M27.4185 137.542C27.4963 137.577 27.587 137.561 27.6488 137.503C27.7106 137.444 27.7315 137.355 27.7019 137.275C27.4992 136.78 27.1769 136.342 26.764 136.002C26.3262 135.687 25.7529 135.632 25.2633 135.858C25.2138 135.883 25.1766 135.927 25.1608 135.98C25.1449 136.033 25.1517 136.09 25.1795 136.138C25.2373 136.24 25.3659 136.279 25.4709 136.225C25.816 136.072 26.2172 136.116 26.5205 136.341C26.8708 136.634 27.1446 137.008 27.3187 137.431C27.3389 137.478 27.374 137.517 27.4185 137.542Z" fill="white"/>
<path d="M28.1249 137.052C28.179 137.071 28.2384 137.071 28.2925 137.052C28.3448 137.032 28.3869 136.992 28.4095 136.941C28.432 136.89 28.433 136.832 28.4123 136.78C28.2076 136.285 27.8841 135.848 27.4704 135.507C27.0355 135.189 26.4624 135.133 25.9737 135.359C25.9248 135.386 25.8883 135.43 25.8726 135.484C25.8568 135.537 25.8631 135.594 25.8899 135.643C25.9169 135.692 25.9623 135.728 26.0162 135.744C26.0701 135.76 26.1281 135.754 26.1773 135.727C26.5251 135.578 26.9253 135.624 27.2309 135.846C27.5794 136.14 27.853 136.512 28.0291 136.932C28.0456 136.982 28.0796 137.024 28.1249 137.052V137.052Z" fill="white"/>
<path d="M26.5006 137.894C26.5547 137.914 26.6141 137.914 26.6682 137.894C26.7204 137.874 26.7626 137.834 26.7851 137.783C26.8076 137.732 26.8087 137.674 26.7879 137.622C26.5832 137.127 26.2597 136.69 25.846 136.349C25.4111 136.031 24.838 135.975 24.3494 136.201C24.3004 136.228 24.264 136.272 24.2482 136.326C24.2325 136.379 24.2387 136.436 24.2656 136.485C24.3232 136.586 24.4502 136.623 24.5529 136.569C24.9007 136.42 25.301 136.466 25.6066 136.688C25.955 136.982 26.2286 137.354 26.4048 137.774C26.4213 137.824 26.4553 137.867 26.5006 137.894Z" fill="white"/>
<path d="M41.6905 142.459C42.299 142.265 42.9205 142.115 43.5503 142.008C43.9494 142.008 46.795 144.878 47.7209 145.018C49.3932 145.269 49.493 147.811 48.4872 147.979C45.5778 148.458 40.5251 147.44 40.5251 147.44C40.5251 147.44 39.9384 144.196 40.098 143.166C40.2577 142.136 40.8843 142.791 41.6905 142.459Z" fill="#0B0754"/>
<path d="M44.2208 145.149C44.1664 145.161 44.1097 145.153 44.0612 145.125C44.0164 145.098 43.9844 145.054 43.9724 145.003C43.9604 144.952 43.9694 144.898 43.9973 144.854C44.2695 144.42 44.6453 144.061 45.0908 143.808C45.5543 143.586 46.1019 143.63 46.5236 143.924C46.5657 143.956 46.5928 144.004 46.5988 144.057C46.6049 144.11 46.5892 144.163 46.5556 144.204C46.4831 144.288 46.3575 144.302 46.2682 144.235C45.9686 144.036 45.585 144.011 45.2625 144.172C44.8889 144.391 44.5729 144.696 44.3405 145.062C44.3131 145.105 44.2703 145.136 44.2208 145.149V145.149Z" fill="white"/>
<path d="M43.6381 144.571C43.5838 144.583 43.527 144.574 43.4785 144.547C43.4326 144.52 43.3998 144.475 43.3877 144.423C43.3756 144.371 43.3854 144.316 43.4146 144.271C43.6886 143.84 44.0641 143.482 44.5082 143.23C44.9716 143.007 45.5192 143.051 45.9409 143.345C45.9824 143.378 46.0088 143.427 46.014 143.479C46.0193 143.532 46.003 143.584 45.9689 143.625C45.8977 143.71 45.7719 143.722 45.6855 143.653C45.3834 143.455 44.9992 143.432 44.6758 143.593C44.303 143.812 43.9882 144.117 43.7578 144.483C43.7304 144.526 43.6877 144.558 43.6381 144.571V144.571Z" fill="white"/>
<path d="M45.023 145.628C44.9693 145.643 44.9117 145.636 44.8634 145.608C44.8183 145.58 44.7862 145.536 44.7743 145.484C44.7623 145.432 44.7714 145.378 44.7995 145.333C45.0723 144.901 45.4481 144.543 45.8931 144.291C46.3557 144.067 46.9037 144.109 47.3258 144.403C47.4114 144.472 47.4257 144.596 47.3578 144.682C47.2864 144.769 47.1591 144.783 47.0704 144.714C46.7708 144.515 46.3872 144.49 46.0647 144.651C45.691 144.87 45.375 145.175 45.1427 145.541C45.1166 145.585 45.0733 145.617 45.023 145.628Z" fill="white"/>
<path d="M45.6416 61.2656C45.6416 61.2656 47.7928 64.6021 47.5573 68.0783C47.3218 71.5545 47.8766 75.5616 44.7636 75.386C41.6506 75.2103 36.107 76.6312 34.347 73.9252C32.5869 71.2193 45.6416 61.2656 45.6416 61.2656Z" fill="#2E3052"/>
<path d="M46.4398 67.3999C46.4398 67.3999 46.9986 72.4366 44.6079 73.8215C42.2173 75.2064 40.4892 73.6618 40.4892 73.6618C40.4892 73.6618 45.5259 66.6296 46.4398 67.3999Z" fill="#000B29"/>
<path d="M36.5141 67.3759C36.5141 67.3759 35.656 66.2305 35.0174 67.1764C34.3789 68.1223 35.2809 70.92 36.8414 70.2375L36.5141 67.3759Z" fill="#FC8664"/>
<path d="M36.5021 69.3715C36.4424 69.3733 36.3893 69.3335 36.3744 69.2757C36.1801 68.7319 35.7636 68.2965 35.229 68.0784C35.196 68.0659 35.1694 68.0407 35.1551 68.0084C35.1409 67.9762 35.1402 67.9395 35.1531 67.9067C35.1656 67.8738 35.1908 67.8472 35.2231 67.8329C35.2553 67.8187 35.292 67.8179 35.3248 67.8309C35.9424 68.0801 36.4195 68.5879 36.6298 69.2198C36.6479 69.2901 36.6075 69.3622 36.538 69.3834L36.5021 69.3715Z" fill="#FD664D"/>
<path d="M35.6001 68.9364C35.5747 68.9379 35.5494 68.9309 35.5283 68.9165C35.4679 68.8759 35.4503 68.7949 35.4884 68.7329C35.6166 68.5598 35.7869 68.4224 35.9833 68.3338C36.0505 68.304 36.1291 68.3344 36.1589 68.4016C36.1886 68.4689 36.1583 68.5475 36.091 68.5772C35.9331 68.6386 35.7951 68.7422 35.6919 68.8766C35.6715 68.9089 35.638 68.9308 35.6001 68.9364V68.9364Z" fill="#FD664D"/>
<path d="M45.3543 67.3759C45.3543 67.3759 46.2123 66.2305 46.8509 67.1764C47.4895 68.1223 46.5875 70.92 45.023 70.2375L45.3543 67.3759Z" fill="#FC8664"/>
<path d="M45.3662 69.3715C45.4255 69.3719 45.4778 69.3327 45.4939 69.2757C45.6842 68.7294 46.1021 68.2926 46.6394 68.0784C46.7065 68.0507 46.7399 67.975 46.7152 67.9067C46.7027 67.8738 46.6775 67.8472 46.6453 67.8329C46.613 67.8187 46.5764 67.8179 46.5436 67.8309C45.9259 68.0801 45.4488 68.5879 45.2385 69.2198C45.2287 69.2537 45.2329 69.2901 45.2502 69.3208C45.2674 69.3516 45.2963 69.3741 45.3303 69.3834L45.3662 69.3715Z" fill="#FD664D"/>
<path d="M46.2682 68.9364C46.2936 68.9373 46.3187 68.9304 46.34 68.9165C46.4004 68.8759 46.418 68.7949 46.38 68.7329C46.2505 68.561 46.0805 68.4238 45.8851 68.3338C45.8528 68.3191 45.816 68.318 45.783 68.3308C45.75 68.3435 45.7234 68.3691 45.7095 68.4016C45.6948 68.4339 45.6937 68.4707 45.7065 68.5037C45.7192 68.5367 45.7448 68.5632 45.7773 68.5772C45.9352 68.6386 46.0733 68.7422 46.1764 68.8766C46.1965 68.9093 46.2302 68.9313 46.2682 68.9364Z" fill="#FD664D"/>
<path d="M43.0474 72.6162V75.4099C43.0474 75.4099 42.2173 76.8227 41.0958 76.9185C39.9743 77.0143 38.9806 75.7012 38.9806 75.7012V72.8237L43.0474 72.6162Z" fill="#F9AF8B"/>
<path d="M43.0474 72.6162V73.8454C42.2931 74.6835 40.9601 74.9789 38.9806 74.6875V72.8077L43.0474 72.6162Z" fill="#FC8664"/>
<path d="M45.9769 65.4682C45.9329 66.6456 45.8116 67.8189 45.6137 68.9803C45.5618 69.2477 45.5059 69.5032 45.4421 69.7307C44.8554 71.7781 43.3947 75.2902 39.2998 73.8255C37.4919 73.1789 36.6538 71.1674 36.2786 69.116C36.0652 67.8613 35.973 66.589 36.0032 65.3166C36.0251 64.2913 36.5845 63.353 37.4759 62.8461C39.8945 61.4772 42.4448 61.988 44.125 62.6346C45.2889 63.0808 46.0354 64.2231 45.9769 65.4682V65.4682Z" fill="#F9AF8B"/>
<path d="M39.1322 67.8269C39.1322 68.1223 38.9766 68.3617 38.789 68.3617C38.6014 68.3617 38.4458 68.1223 38.4458 67.8269C38.4458 67.5316 38.6014 67.2881 38.789 67.2881C38.9766 67.2881 39.1322 67.5076 39.1322 67.8269Z" fill="#2E3052"/>
<path d="M43.3468 67.8269C43.3468 68.1223 43.1951 68.3617 43.0035 68.3617C42.812 68.3617 42.6643 68.1223 42.6643 67.8269C42.6643 67.5316 42.816 67.2881 43.0035 67.2881C43.1911 67.2881 43.3468 67.5076 43.3468 67.8269Z" fill="#2E3052"/>
<path d="M38.1145 66.019C38.5883 65.8818 39.0781 65.808 39.5712 65.7995C39.6465 65.7986 39.7183 65.8309 39.7676 65.8878C39.8168 65.9447 39.8384 66.0205 39.8267 66.0948V66.0948C39.8045 66.221 39.6911 66.3104 39.5633 66.3024C38.8893 66.2805 38.216 66.364 37.5677 66.5498C37.5702 66.4479 37.6116 66.3508 37.6835 66.2784C37.7986 66.1516 37.9485 66.0613 38.1145 66.019V66.019Z" fill="#2E3052"/>
<path d="M43.6301 66.031C43.1554 65.8922 42.664 65.8183 42.1694 65.8115C42.0944 65.8103 42.0227 65.8427 41.9741 65.8999C41.9254 65.957 41.9049 66.0329 41.918 66.1068V66.1068C41.9365 66.2334 42.0498 66.3241 42.1774 66.3143C42.8515 66.2903 43.5251 66.3738 44.1729 66.5618C44.175 66.4589 44.1328 66.3601 44.0572 66.2904C43.9439 66.1633 43.7951 66.0729 43.6301 66.031V66.031Z" fill="#2E3052"/>
<path d="M40.9801 69.9901C40.8801 69.9923 40.7812 69.969 40.6927 69.9222C40.579 69.8531 40.5071 69.7319 40.5011 69.5989C40.4888 68.9075 40.5155 68.216 40.581 67.5276C40.583 67.4929 40.599 67.4606 40.6254 67.438C40.6517 67.4154 40.6861 67.4046 40.7207 67.4079C40.7564 67.4099 40.7897 67.4263 40.813 67.4534C40.8364 67.4805 40.8477 67.5159 40.8444 67.5515C40.7822 68.2228 40.7556 68.8969 40.7646 69.571C40.7638 69.6203 40.7878 69.6667 40.8284 69.6947C41.0059 69.7416 41.1942 69.7231 41.3592 69.6428C41.4275 69.6181 41.5031 69.6516 41.5308 69.7187C41.556 69.7859 41.5246 69.8611 41.459 69.8903C41.306 69.9498 41.1441 69.9835 40.9801 69.9901Z" fill="#FC8664"/>
<path d="M39.3038 70.8242C39.4036 71.3271 39.7349 72.249 40.8524 72.249C41.9699 72.249 42.2851 71.4069 42.3929 70.8242H39.3038Z" fill="white"/>
<path d="M40.8364 73.0153C40.6185 73.0077 40.4059 72.946 40.2178 72.8357C40.1872 72.8175 40.1654 72.7877 40.1571 72.7532C40.1488 72.7186 40.1549 72.6821 40.1739 72.6521C40.213 72.5926 40.2914 72.5735 40.3535 72.6082V72.6082C40.5001 72.6952 40.666 72.7446 40.8364 72.7519C41.0146 72.7465 41.1887 72.6971 41.3433 72.6082C41.4061 72.572 41.4864 72.5934 41.5229 72.6561C41.5417 72.6855 41.5477 72.7214 41.5394 72.7553C41.5311 72.7892 41.5092 72.8183 41.479 72.8357C41.283 72.9479 41.0622 73.0097 40.8364 73.0153V73.0153Z" fill="#FC8664"/>
<path d="M46.5077 65.2567C46.4462 65.3842 46.3276 65.4746 46.1884 65.5001C46.1912 65.8254 46.1752 66.1505 46.1405 66.474C45.9769 68.3817 45.4979 68.7169 45.3902 68.246C45.3242 67.3495 45.3122 66.4499 45.3543 65.552C44.9791 65.5241 44.6558 65.4642 44.6558 65.4642L44.2128 63.6124L44.0572 65.4403C43.3947 65.6718 41.8461 65.3006 41.8461 65.3006L41.3273 63.4767L41.004 65.2327C40.2922 65.5163 39.5099 65.5721 38.765 65.3924L38.4817 63.5006L37.8192 65.3924C37.8192 65.3924 35.6959 66.1547 35.672 65.3924C35.783 64.4898 35.9794 63.5998 36.2587 62.7343C36.5424 61.6899 37.2381 60.8055 38.1863 60.2838C40.1783 59.2347 42.552 59.202 44.572 60.196C46.5915 61.4053 46.5077 65.2567 46.5077 65.2567Z" fill="#2E3052"/>
<path d="M36.8414 61.4093C36.8414 61.4093 35.0933 63.4887 34.5186 67.2003C33.9439 70.912 33.1456 73.6618 35.3846 74.8871C37.8072 76.2161 37.5997 73.4902 37.5637 72.7519C37.5278 72.0135 35.4684 69.9901 36.8414 64.2948C37.2884 62.455 36.8414 61.4093 36.8414 61.4093Z" fill="#2E3052"/>
<path d="M36.4343 69.0841V69.0841C36.4343 69.112 36.4343 69.2597 36.4343 69.4832C36.4343 69.6269 36.4343 69.7985 36.4622 69.9981C36.546 71.2512 36.7895 73.4104 37.5039 74.1607C37.9233 74.4858 38.438 74.6639 38.9686 74.6676V73.6938C38.3045 73.3593 37.7504 72.8412 37.3722 72.2011C36.9332 71.3382 36.6329 70.4116 36.4822 69.4553L36.4343 69.0841Z" fill="#000B29"/>
<path d="M46.0088 70.2974C46.0088 70.4693 45.8694 70.6087 45.6975 70.6087C45.5256 70.6087 45.3862 70.4693 45.3862 70.2974C45.3862 70.1255 45.5256 69.9861 45.6975 69.9861C45.8694 69.9861 46.0088 70.1255 46.0088 70.2974Z" fill="white"/>
<rect x="130.551" y="33.9709" width="9.69425" height="9.69425" rx="4.84712" fill="url(#paint2_linear_2_2)"/>
<path d="M138.701 38.816C138.639 40.5953 137.179 42.0058 135.398 42.0058C133.618 42.0058 132.157 40.5953 132.096 38.816C132.157 37.0367 133.618 35.6263 135.398 35.6263C137.179 35.6263 138.639 37.0367 138.701 38.816V38.816Z" fill="#3840F7"/>
<path d="M137.942 40.9193C137.316 41.6794 136.383 42.1197 135.398 42.1197C134.413 42.1197 133.48 41.6794 132.854 40.9193L132.898 40.8315C133.041 40.5489 133.293 40.3369 133.596 40.2448C134.135 40.0812 134.634 39.9136 134.913 39.4466C134.615 39.298 134.38 39.0473 134.251 38.7402C133.876 38.82 133.608 38.1296 133.808 37.942C133.866 37.8849 133.946 37.8546 134.027 37.8582C134.067 37.1297 134.669 36.5593 135.398 36.5593C136.128 36.5593 136.73 37.1297 136.769 37.8582C136.851 37.8546 136.93 37.8849 136.989 37.942C137.188 38.1256 136.921 38.816 136.55 38.7402C136.434 39.0294 136.215 39.2654 135.935 39.4027C136.227 39.8438 136.682 40.151 137.2 40.2568C137.346 40.305 137.482 40.3808 137.599 40.4803C137.719 40.5808 137.816 40.7043 137.887 40.8435L137.942 40.9193Z" fill="white"/>
<path fill-rule="evenodd" clip-rule="evenodd" d="M7.98224 87.7213C8.41284 87.3195 8.991 87.1146 9.57854 87.1555C10.6694 87.2369 11.5224 88.1295 11.5541 89.2229C11.5639 89.6166 11.463 90.0052 11.2628 90.3444C11.226 90.4082 11.188 90.4721 11.1501 90.536C11.0931 90.6317 11.0361 90.7275 10.9834 90.8233L9.44683 93.5891L8.44508 91.7772C8.25632 91.4391 8.05562 91.105 7.85563 90.772C7.77231 90.6334 7.68912 90.4949 7.60696 90.3564C7.41032 90.0299 7.30681 89.6559 7.30763 89.2748C7.30731 88.6858 7.55165 88.1232 7.98224 87.7213ZM8.54085 89.0167C8.53939 89.5099 8.93764 89.9112 9.43085 89.9134C9.66865 89.9144 9.89706 89.8207 10.0656 89.6529C10.2341 89.4852 10.3288 89.2572 10.3288 89.0194C10.3288 88.5261 9.92939 88.1261 9.43617 88.1254C8.94295 88.1247 8.54232 88.5235 8.54085 89.0167Z" fill="white"/>
<path fill-rule="evenodd" clip-rule="evenodd" d="M174.527 48.1967C174.192 47.3864 173.402 46.858 172.525 46.858C171.33 46.858 170.36 47.8258 170.358 49.0211C170.356 49.898 170.883 50.6895 171.693 51.0261C172.502 51.3628 173.435 51.1784 174.056 50.5589C174.676 49.9394 174.863 49.007 174.527 48.1967ZM174.014 49.0211C174.014 49.8433 173.347 50.5098 172.525 50.5098C171.703 50.5098 171.036 49.8433 171.036 49.0211C171.036 48.199 171.703 47.5325 172.525 47.5325C173.347 47.5325 174.014 48.199 174.014 49.0211Z" fill="#4951EC"/>
<path fill-rule="evenodd" clip-rule="evenodd" d="M166.893 41.4302C166.893 40.2355 165.925 39.267 164.73 39.267C163.537 39.2692 162.569 40.2364 162.567 41.4302C162.567 42.6248 163.536 43.5933 164.73 43.5933C165.925 43.5933 166.893 42.6248 166.893 41.4302ZM166.215 41.4302C166.215 42.2501 165.55 42.9148 164.73 42.9148C163.911 42.9127 163.248 42.2492 163.246 41.4302C163.246 40.6102 163.91 39.9455 164.73 39.9455C165.55 39.9455 166.215 40.6102 166.215 41.4302Z" fill="#FF8607"/>
<path d="M162.056 32.2348C162.244 32.2348 162.397 32.386 162.4 32.574V34.0707C162.397 34.2587 162.244 34.4099 162.056 34.4099C161.869 34.4099 161.717 34.258 161.717 34.0707V32.574C161.717 32.3867 161.869 32.2348 162.056 32.2348V32.2348Z" fill="#4951EC"/>
<path d="M162.056 29.6127C162.244 29.6127 162.397 29.7639 162.4 29.9519V31.4486C162.397 31.6366 162.244 31.7878 162.056 31.7878C161.869 31.7878 161.717 31.6359 161.717 31.4486V29.9519C161.717 29.7646 161.869 29.6127 162.056 29.6127V29.6127Z" fill="#4951EC"/>
<path d="M159.957 31.6721H161.302C161.489 31.6721 161.641 31.8239 161.641 32.0113C161.641 32.1987 161.489 32.3505 161.302 32.3505H159.957C159.77 32.3505 159.618 32.1987 159.618 32.0113C159.618 31.8239 159.77 31.6721 159.957 31.6721V31.6721Z" fill="#4951EC"/>
<path d="M162.835 31.6721H164.18C164.367 31.6721 164.519 31.8239 164.519 32.0113C164.519 32.1987 164.367 32.3505 164.18 32.3505H162.835C162.647 32.3505 162.495 32.1987 162.495 32.0113C162.495 31.8239 162.647 31.6721 162.835 31.6721V31.6721Z" fill="#4951EC"/>
<path d="M174.01 40.624C174.197 40.624 174.349 40.7759 174.349 40.9632V42.4599C174.349 42.6472 174.197 42.7991 174.01 42.7991C173.822 42.7991 173.67 42.6472 173.67 42.4599V40.9632C173.67 40.7759 173.822 40.624 174.01 40.624V40.624Z" fill="#FF8607"/>
<path d="M174.01 38.0019C174.197 38.0019 174.349 38.1537 174.349 38.3411V39.8377C174.349 40.0251 174.197 40.177 174.01 40.177C173.822 40.177 173.67 40.0251 173.67 39.8377V38.3411C173.67 38.1537 173.822 38.0019 174.01 38.0019V38.0019Z" fill="#FF8607"/>
<path d="M171.906 40.0612H173.251C173.439 40.0612 173.59 40.2131 173.59 40.4005C173.59 40.5878 173.439 40.7397 173.251 40.7397H171.906C171.719 40.7397 171.567 40.5878 171.567 40.4005C171.567 40.2131 171.719 40.0612 171.906 40.0612Z" fill="#FF8607"/>
<path d="M174.764 40.0612H176.109C176.296 40.0612 176.448 40.2131 176.448 40.4005C176.448 40.5878 176.296 40.7397 176.109 40.7397H174.764C174.577 40.7397 174.425 40.5878 174.425 40.4005C174.425 40.2131 174.577 40.0612 174.764 40.0612Z" fill="#FF8607"/>
<path fill-rule="evenodd" clip-rule="evenodd" d="M40.6528 21.4004C40.6579 20.2045 39.6935 19.2306 38.4976 19.224C37.9215 19.2208 37.3678 19.4471 36.9589 19.853C36.55 20.2589 36.3196 20.811 36.3185 21.3871C36.3164 22.5829 37.2832 23.5545 38.479 23.5582C39.6749 23.5618 40.6477 22.5962 40.6528 21.4004ZM37.017 21.3897C37.0155 20.5703 37.6782 19.9046 38.4976 19.9024C39.3182 19.9024 39.9841 20.5665 39.9863 21.3871C39.9863 22.2065 39.3224 22.871 38.503 22.8717C37.6835 22.8725 37.0184 22.2092 37.017 21.3897Z" fill="#4951EC"/>
<path fill-rule="evenodd" clip-rule="evenodd" d="M30.614 16.4023C31.8082 16.4031 32.777 15.436 32.7785 14.2418C32.7799 13.0477 31.8135 12.0782 30.6193 12.076C30.0449 12.075 29.4937 12.3024 29.0872 12.7082C28.6806 13.114 28.4522 13.6648 28.4522 14.2392C28.4522 15.4333 29.4199 16.4016 30.614 16.4023ZM29.1346 14.2392C29.1346 13.4192 29.7994 12.7545 30.6193 12.7545V12.7505C31.4399 12.7527 32.104 13.4186 32.104 14.2392C32.104 15.0591 31.4393 15.7238 30.6193 15.7238C29.7994 15.7238 29.1346 15.0591 29.1346 14.2392Z" fill="#FF8607"/>
<path d="M27.7617 24.4443C27.7617 24.6316 27.9136 24.7835 28.101 24.7835H29.5976C29.785 24.7835 29.9369 24.6316 29.9369 24.4443C29.9369 24.2569 29.785 24.105 29.5976 24.105H28.101C27.9136 24.105 27.7617 24.2569 27.7617 24.4443V24.4443Z" fill="#4951EC"/>
<path d="M25.1436 24.4443C25.1436 24.5342 25.1794 24.6205 25.243 24.6842C25.3066 24.7478 25.3929 24.7835 25.4829 24.7835H26.9795C27.1669 24.7835 27.3187 24.6316 27.3187 24.4443C27.3187 24.2569 27.1669 24.105 26.9795 24.105H25.4829C25.2955 24.105 25.1436 24.2569 25.1436 24.4443H25.1436Z" fill="#4951EC"/>
<path d="M27.203 22.329V23.674C27.203 23.8614 27.3549 24.0132 27.5422 24.0132C27.7296 24.0132 27.8815 23.8614 27.8815 23.674V22.329C27.8815 22.1417 27.7296 21.9898 27.5422 21.9898C27.3549 21.9898 27.203 22.1417 27.203 22.329V22.329Z" fill="#4951EC"/>
<path d="M27.203 25.2026V26.5476C27.203 26.7349 27.3549 26.8868 27.5422 26.8868C27.7296 26.8868 27.8815 26.7349 27.8815 26.5476V25.2026C27.8815 25.0152 27.7296 24.8633 27.5422 24.8633C27.3549 24.8633 27.203 25.0152 27.203 25.2026Z" fill="#4951EC"/>
<path d="M43.6142 12.7505C43.6142 12.9379 43.766 13.0898 43.9534 13.0898H45.454C45.6414 13.0898 45.7933 12.9379 45.7933 12.7505C45.7933 12.5632 45.6414 12.4113 45.454 12.4113H43.9534C43.766 12.4113 43.6142 12.5632 43.6142 12.7505Z" fill="#FF8607"/>
<path d="M40.996 12.7505C40.996 12.9379 41.1479 13.0898 41.3353 13.0898H42.8319C43.0193 13.0898 43.1712 12.9379 43.1712 12.7505C43.1712 12.5632 43.0193 12.4113 42.8319 12.4113H41.3353C41.1479 12.4113 40.996 12.5632 40.996 12.7505Z" fill="#FF8607"/>
<path d="M43.0554 11.9962C43.0554 12.1836 43.2073 12.3354 43.3947 12.3354C43.582 12.3354 43.7339 12.1836 43.7339 11.9962V10.6512C43.7339 10.4639 43.582 10.312 43.3947 10.312C43.2073 10.312 43.0554 10.4639 43.0554 10.6512L43.0554 11.9962Z" fill="#FF8607"/>
<path d="M43.0554 14.8538C43.0554 15.0412 43.2073 15.1931 43.3947 15.1931C43.582 15.1931 43.7339 15.0412 43.7339 14.8538V13.5088C43.7339 13.3215 43.582 13.1696 43.3947 13.1696C43.2073 13.1696 43.0554 13.3215 43.0554 13.5088L43.0554 14.8538Z" fill="#FF8607"/>
<path d="M133.856 23.2031C133.903 23.2131 133.952 23.2131 133.999 23.2031C134.514 23.0753 134.798 23.0235 134.798 23.0235C134.87 23.0136 134.935 22.9751 134.979 22.9165C135.022 22.8579 135.04 22.7843 135.029 22.7122C134.995 22.5621 134.849 22.4654 134.698 22.4927C134.698 22.4927 134.378 22.5485 133.84 22.6802C133.768 22.6954 133.705 22.7393 133.666 22.8017C133.626 22.8642 133.614 22.94 133.632 23.0115C133.666 23.1116 133.752 23.1851 133.856 23.2031V23.2031Z" fill="#DCEDF9"/>
<path d="M117.225 35.5234C116.958 35.9784 116.698 36.4533 116.459 36.9283C116.403 37.0502 116.272 37.119 116.139 37.0959H116.088C116.021 37.0687 115.968 37.0154 115.942 36.9482C115.915 36.8811 115.917 36.8061 115.948 36.7407C116.195 36.2538 116.459 35.7709 116.746 35.3039C116.785 35.2365 116.848 35.1872 116.923 35.167C116.998 35.1467 117.078 35.1572 117.145 35.1961C117.247 35.2717 117.281 35.4093 117.225 35.5234Z" fill="#DCEDF9"/>
<path d="M115.788 38.377C115.581 38.8599 115.389 39.3588 115.202 39.8577C115.151 39.9951 115.004 40.0712 114.862 40.0333H114.838C114.769 40.0122 114.71 39.9639 114.676 39.8994C114.643 39.8348 114.636 39.7594 114.659 39.6901C114.846 39.1792 115.058 38.6723 115.253 38.1814C115.319 38.0397 115.483 37.9733 115.629 38.0298C115.696 38.054 115.751 38.1045 115.781 38.1698C115.811 38.2352 115.814 38.3098 115.788 38.377Z" fill="#DCEDF9"/>
<path d="M113.346 46.2513C113.21 46.2216 113.119 46.0941 113.134 45.956C113.206 45.4212 113.294 44.8864 113.39 44.3596C113.423 44.2099 113.57 44.1144 113.721 44.1441C113.794 44.1528 113.86 44.1911 113.903 44.25C113.947 44.3089 113.965 44.3831 113.952 44.4554C113.857 44.9662 113.773 45.493 113.701 46.0199C113.676 46.1718 113.534 46.2753 113.382 46.2513H113.346Z" fill="#DCEDF9"/>
<path d="M114.507 41.039C114.579 41.0539 114.641 41.0982 114.679 41.1611C114.717 41.2239 114.727 41.2998 114.707 41.3703C114.639 41.6058 114.571 41.8452 114.507 42.0807C114.443 42.3162 114.363 42.6275 114.296 42.9029C114.256 43.0534 114.103 43.1443 113.952 43.1064V43.1064C113.808 43.0745 113.715 42.9324 113.745 42.7871C113.813 42.5077 113.884 42.2244 113.96 41.949C114.036 41.6736 114.092 41.4661 114.164 41.2266C114.212 41.0817 114.363 40.9981 114.511 41.0351L114.507 41.039Z" fill="#DCEDF9"/>
<path d="M118.079 34.1625C118.008 34.2619 117.883 34.3078 117.764 34.2782C117.736 34.2717 117.709 34.261 117.684 34.2463C117.62 34.2114 117.574 34.1514 117.556 34.0809C117.539 34.0103 117.552 33.9357 117.592 33.8751C117.899 33.4201 118.223 32.9731 118.558 32.5381C118.654 32.4162 118.829 32.39 118.957 32.4782C119.018 32.5178 119.059 32.5807 119.071 32.6519C119.083 32.7231 119.065 32.7961 119.021 32.8534C118.694 33.2765 118.374 33.7155 118.079 34.1625Z" fill="#DCEDF9"/>
<path d="M132.391 23.658C131.872 23.8257 131.341 24.0132 130.818 24.2168C130.675 24.2724 130.513 24.2103 130.443 24.0731C130.415 24.0061 130.416 23.9303 130.445 23.8638C130.475 23.7973 130.53 23.7459 130.599 23.7219C131.134 23.5144 131.673 23.3228 132.195 23.1512C132.342 23.102 132.501 23.1755 132.559 23.3188C132.583 23.386 132.578 23.46 132.547 23.5239C132.515 23.5879 132.459 23.6362 132.391 23.658V23.658Z" fill="#DCEDF9"/>
<path d="M127.785 25.5937C127.721 25.6289 127.645 25.6375 127.574 25.6176C127.499 25.6015 127.434 25.5553 127.394 25.4899C127.358 25.4269 127.349 25.3517 127.371 25.2822C127.392 25.2127 127.441 25.155 127.506 25.1228C128.005 24.8633 128.516 24.6119 129.03 24.3804C129.175 24.3066 129.352 24.3615 129.43 24.5041C129.462 24.5694 129.465 24.6451 129.439 24.7131C129.414 24.7811 129.361 24.8355 129.294 24.8633C128.775 25.0908 128.272 25.3383 127.785 25.5937Z" fill="#DCEDF9"/>
<path d="M122.353 29.3054C122.281 29.3707 122.18 29.3947 122.086 29.3692C122.034 29.3577 121.987 29.3314 121.95 29.2934C121.89 29.2449 121.854 29.1715 121.854 29.0938C121.854 29.0162 121.89 28.9428 121.95 28.8943C122.349 28.5271 122.8 28.1719 123.239 27.8287C123.362 27.7348 123.535 27.7504 123.639 27.8646C123.694 27.9191 123.722 27.9954 123.715 28.0726C123.708 28.1499 123.667 28.22 123.603 28.2637C123.188 28.599 122.761 28.9502 122.353 29.3054Z" fill="#DCEDF9"/>
<path d="M124.948 27.2939C124.878 27.3433 124.791 27.3594 124.708 27.3378C124.645 27.3237 124.589 27.2885 124.549 27.238C124.497 27.1791 124.475 27.1006 124.487 27.0235C124.5 26.9465 124.545 26.8789 124.612 26.8389C125.071 26.5276 125.546 26.2203 126.029 25.9329C126.163 25.8511 126.337 25.8859 126.428 26.0128C126.47 26.0719 126.485 26.1462 126.469 26.2171C126.453 26.2879 126.408 26.3486 126.344 26.3839C125.866 26.6872 125.399 26.9866 124.948 27.2939Z" fill="#DCEDF9"/>
<path d="M120.051 31.6042C119.978 31.6858 119.866 31.721 119.759 31.696C119.718 31.6856 119.68 31.6665 119.648 31.6401C119.59 31.5976 119.552 31.5327 119.545 31.4614C119.537 31.39 119.56 31.3187 119.608 31.265C119.971 30.8659 120.354 30.4428 120.745 30.0677C120.859 29.966 121.031 29.966 121.144 30.0677C121.204 30.1169 121.238 30.1901 121.238 30.2672C121.238 30.3443 121.204 30.4175 121.144 30.4668C120.781 30.802 120.406 31.2011 120.051 31.6042Z" fill="#DCEDF9"/>
<path d="M134.143 21.3831L133.564 16.9012L148.742 19.0803L134.143 21.3831V21.3831Z" fill="url(#paint3_linear_2_2)"/>
<path d="M148.742 19.0803L134.722 22.5246L134.682 22.5326L133.979 23.3388L134.143 21.3832L148.742 19.0803V19.0803Z" fill="#0077EB"/>
<path d="M133.979 23.3388L135.241 23.3228L134.682 22.5326L133.979 23.3388V23.3388Z" fill="#0059D3"/>
<path d="M136.446 22.0976L134.682 22.5326L137.551 26.6194L148.742 19.0803L136.446 22.0976V22.0976Z" fill="url(#paint4_linear_2_2)"/>
<defs>
<linearGradient id="paint0_linear_2_2" x1="17.9843" y1="54.0201" x2="4.87973" y2="157.93" gradientUnits="userSpaceOnUse">
<stop stop-color="#53D8FF"/>
<stop offset="0.21" stop-color="#4DB9FD"/>
<stop offset="1" stop-color="#3840F7"/>
</linearGradient>
<linearGradient id="paint1_linear_2_2" x1="17.9802" y1="54.4447" x2="12.4987" y2="121.96" gradientUnits="userSpaceOnUse">
<stop stop-color="#53D8FF"/>
<stop offset="0.21" stop-color="#4DB9FD"/>
<stop offset="1" stop-color="#3840F7"/>
</linearGradient>
<linearGradient id="paint2_linear_2_2" x1="130.263" y1="33.8379" x2="128.202" y2="45.1309" gradientUnits="userSpaceOnUse">
<stop stop-color="#53D8FF"/>
<stop offset="0.21" stop-color="#4DB9FD"/>
<stop offset="1" stop-color="#3840F7"/>
</linearGradient>
<linearGradient id="paint3_linear_2_2" x1="133.114" y1="16.8397" x2="132.824" y2="22.2192" gradientUnits="userSpaceOnUse">
<stop stop-color="#53D8FF"/>
<stop offset="0.21" stop-color="#4DB9FD"/>
<stop offset="1" stop-color="#3840F7"/>
</linearGradient>
<linearGradient id="paint4_linear_2_2" x1="134.265" y1="18.9769" x2="133.385" y2="27.9659" gradientUnits="userSpaceOnUse">
<stop stop-color="#53D8FF"/>
<stop offset="0.21" stop-color="#4DB9FD"/>
<stop offset="1" stop-color="#3840F7"/>
</linearGradient>
</defs>
</svg>
